o cone
mtllib primitive.mtl
usemtl ice_editor
v 0 1 0
v 0 1 0
v 0 1 0
v 0 1 0
v 0 1 0
v 0 1 0
v 0 1 0
v 0 1 0
v 0 1 0
v 0 1 0
v 0 1 0
v 0 1 0
v 0 1 0
v 0 1 0
v 0 1 0
v 0 1 0
v 0 1 0
v 0 -1 1
v 0.3826834261417389 -1 0.9238795042037964
v 0.7071067690849304 -1 0.7071067690849304
v 0.9238795042037964 -1 0.3826834261417389
v 1 -1 6.123234262925839e-17
v 0.9238795042037964 -1 -0.3826834261417389
v 0.7071067690849304 -1 -0.7071067690849304
v 0.3826834261417389 -1 -0.9238795042037964
v 1.2246468525851679e-16 -1 -1
v -0.3826834261417389 -1 -0.9238795042037964
v -0.7071067690849304 -1 -0.7071067690849304
v -0.9238795042037964 -1 -0.3826834261417389
v -1 -1 -1.8369701465288538e-16
v -0.9238795042037964 -1 0.3826834261417389
v -0.7071067690849304 -1 0.7071067690849304
v -0.3826834261417389 -1 0.9238795042037964
v -2.4492937051703357e-16 -1 1
v 0 -1 0
v 0 -1 0
v 0 -1 0
v 0 -1 0
v 0 -1 0
v 0 -1 0
v 0 -1 0
v 0 -1 0
v 0 -1 0
v 0 -1 0
v 0 -1 0
v 0 -1 0
v 0 -1 0
v 0 -1 0
v 0 -1 0
v 0 -1 0
v 0 -1 1
v 0.3826834261417389 -1 0.9238795042037964
v 0.7071067690849304 -1 0.7071067690849304
v 0.9238795042037964 -1 0.3826834261417389
v 1 -1 6.123234262925839e-17
v 0.9238795042037964 -1 -0.3826834261417389
v 0.7071067690849304 -1 -0.7071067690849304
v 0.3826834261417389 -1 -0.9238795042037964
v 1.2246468525851679e-16 -1 -1
v -0.3826834261417389 -1 -0.9238795042037964
v -0.7071067690849304 -1 -0.7071067690849304
v -0.9238795042037964 -1 -0.3826834261417389
v -1 -1 -1.8369701465288538e-16
v -0.9238795042037964 -1 0.3826834261417389
v -0.7071067690849304 -1 0.7071067690849304
v -0.3826834261417389 -1 0.9238795042037964
v -2.4492937051703357e-16 -1 1
vt 0 1
vt 0.0625 1
vt 0.125 1
vt 0.1875 1
vt 0.25 1
vt 0.3125 1
vt 0.375 1
vt 0.4375 1
vt 0.5 1
vt 0.5625 1
vt 0.625 1
vt 0.6875 1
vt 0.75 1
vt 0.8125 1
vt 0.875 1
vt 0.9375 1
vt 1 1
vt 0 0
vt 0.0625 0
vt 0.125 0
vt 0.1875 0
vt 0.25 0
vt 0.3125 0
vt 0.375 0
vt 0.4375 0
vt 0.5 0
vt 0.5625 0
vt 0.625 0
vt 0.6875 0
vt 0.75 0
vt 0.8125 0
vt 0.875 0
vt 0.9375 0
vt 1 0
vt 0.5 0.5
vt 0.5 0.5
vt 0.5 0.5
vt 0.5 0.5
vt 0.5 0.5
vt 0.5 0.5
vt 0.5 0.5
vt 0.5 0.5
vt 0.5 0.5
vt 0.5 0.5
vt 0.5 0.5
vt 0.5 0.5
vt 0.5 0.5
vt 0.5 0.5
vt 0.5 0.5
vt 0.5 0.5
vt 1 0.5
vt 0.9619397521018982 0.30865827202796936
vt 0.8535534143447876 0.1464466154575348
vt 0.6913416981697083 0.03806023299694061
vt 0.5 0
vt 0.30865827202796936 0.03806023299694061
vt 0.1464466154575348 0.1464466154575348
vt 0.03806023299694061 0.30865827202796936
vt 0 0.5
vt 0.03806023299694061 0.6913416981697083
vt 0.1464466154575348 0.8535534143447876
vt 0.30865827202796936 0.9619397521018982
vt 0.5 1
vt 0.6913416981697083 0.9619397521018982
vt 0.8535534143447876 0.8535534143447876
vt 0.9619397521018982 0.6913416981697083
vt 1 0.5
vn 0 0.4472135954999579 0.8944271909999159
vn 0.34228246706049015 0.4472135810246552 0.8263429830827443
vn 0.6324555326980081 0.4472135936209425 0.6324555326980081
vn 0.8263429830827443 0.4472135810246552 0.34228246706049015
vn 0.8944271909999159 0.4472135954999579 5.476787054965444e-17
vn 0.8263429830827443 0.4472135810246552 -0.34228246706049015
vn 0.6324555326980081 0.4472135936209425 -0.6324555326980081
vn 0.34228246706049015 0.4472135810246552 -0.8263429830827443
vn 1.0953574109930888e-16 0.4472135954999579 -0.8944271909999159
vn -0.34228246706049015 0.4472135810246552 -0.8263429830827443
vn -0.6324555326980081 0.4472135936209425 -0.6324555326980081
vn -0.8263429830827443 0.4472135810246552 -0.34228246706049015
vn -0.8944271909999159 0.4472135954999579 -1.6430361495768581e-16
vn -0.8263429830827443 0.4472135810246552 0.34228246706049015
vn -0.6324555326980081 0.4472135936209425 0.6324555326980081
vn -0.34228246706049015 0.4472135810246552 0.8263429830827443
vn -2.1907148219861777e-16 0.4472135954999579 0.8944271909999159
vn 0 0.4472135954999579 0.8944271909999159
vn 0.34228246706049015 0.4472135810246552 0.8263429830827443
vn 0.6324555326980081 0.4472135936209425 0.6324555326980081
vn 0.8263429830827443 0.4472135810246552 0.34228246706049015
vn 0.8944271909999159 0.4472135954999579 5.476787054965444e-17
vn 0.8263429830827443 0.4472135810246552 -0.34228246706049015
vn 0.6324555326980081 0.4472135936209425 -0.6324555326980081
vn 0.34228246706049015 0.4472135810246552 -0.8263429830827443
vn 1.0953574109930888e-16 0.4472135954999579 -0.8944271909999159
vn -0.34228246706049015 0.4472135810246552 -0.8263429830827443
vn -0.6324555326980081 0.4472135936209425 -0.6324555326980081
vn -0.8263429830827443 0.4472135810246552 -0.34228246706049015
vn -0.8944271909999159 0.4472135954999579 -1.6430361495768581e-16
vn -0.8263429830827443 0.4472135810246552 0.34228246706049015
vn -0.6324555326980081 0.4472135936209425 0.6324555326980081
vn -0.34228246706049015 0.4472135810246552 0.8263429830827443
vn -2.1907148219861777e-16 0.4472135954999579 0.8944271909999159
vn 0 -1 0
vn 0 -1 0
vn 0 -1 0
vn 0 -1 0
vn 0 -1 0
vn 0 -1 0
vn 0 -1 0
vn 0 -1 0
vn 0 -1 0
vn 0 -1 0
vn 0 -1 0
vn 0 -1 0
vn 0 -1 0
vn 0 -1 0
vn 0 -1 0
vn 0 -1 0
vn 0 -1 0
vn 0 -1 0
vn 0 -1 0
vn 0 -1 0
vn 0 -1 0
vn 0 -1 0
vn 0 -1 0
vn 0 -1 0
vn 0 -1 0
vn 0 -1 0
vn 0 -1 0
vn 0 -1 0
vn 0 -1 0
vn 0 -1 0
vn 0 -1 0
vn 0 -1 0
vn 0 -1 0
f 18/18/18 19/19/19 2/2/2
f 19/19/19 20/20/20 3/3/3
f 20/20/20 21/21/21 4/4/4
f 21/21/21 22/22/22 5/5/5
f 22/22/22 23/23/23 6/6/6
f 23/23/23 24/24/24 7/7/7
f 24/24/24 25/25/25 8/8/8
f 25/25/25 26/26/26 9/9/9
f 26/26/26 27/27/27 10/10/10
f 27/27/27 28/28/28 11/11/11
f 28/28/28 29/29/29 12/12/12
f 29/29/29 30/30/30 13/13/13
f 30/30/30 31/31/31 14/14/14
f 31/31/31 32/32/32 15/15/15
f 32/32/32 33/33/33 16/16/16
f 33/33/33 34/34/34 17/17/17
f 52/52/52 51/51/51 35/35/35
f 53/53/53 52/52/52 36/36/36
f 54/54/54 53/53/53 37/37/37
f 55/55/55 54/54/54 38/38/38
f 56/56/56 55/55/55 39/39/39
f 57/57/57 56/56/56 40/40/40
f 58/58/58 57/57/57 41/41/41
f 59/59/59 58/58/58 42/42/42
f 60/60/60 59/59/59 43/43/43
f 61/61/61 60/60/60 44/44/44
f 62/62/62 61/61/61 45/45/45
f 63/63/63 62/62/62 46/46/46
f 64/64/64 63/63/63 47/47/47
f 65/65/65 64/64/64 48/48/48
f 66/66/66 65/65/65 49/49/49
f 67/67/67 66/66/66 50/50/50

