o sphere
mtllib primitive.mtl
usemtl ice_editor
v 0 1 0
v 0 1 0
v 0 1 0
v 0 1 0
v 0 1 0
v 0 1 0
v 0 1 0
v 0 1 0
v 0 1 0
v 0 1 0
v 0 1 0
v 0 1 0
v 0 1 0
v 0 1 0
v 0 1 0
v 0 1 0
v 0 1 0
v -0.258819043636322 0.9659258127212524 0
v -0.23911762237548828 0.9659258127212524 0.0990457609295845
v -0.1830127090215683 0.9659258127212524 0.1830127090215683
v -0.0990457609295845 0.9659258127212524 0.23911762237548828
v -1.5848095630968816e-17 0.9659258127212524 0.258819043636322
v 0.0990457609295845 0.9659258127212524 0.23911762237548828
v 0.1830127090215683 0.9659258127212524 0.1830127090215683
v 0.23911762237548828 0.9659258127212524 0.0990457609295845
v 0.258819043636322 0.9659258127212524 3.169619126193763e-17
v 0.23911762237548828 0.9659258127212524 -0.0990457609295845
v 0.1830127090215683 0.9659258127212524 -0.1830127090215683
v 0.0990457609295845 0.9659258127212524 -0.23911762237548828
v 4.754428689290645e-17 0.9659258127212524 -0.258819043636322
v -0.0990457609295845 0.9659258127212524 -0.23911762237548828
v -0.1830127090215683 0.9659258127212524 -0.1830127090215683
v -0.23911762237548828 0.9659258127212524 -0.0990457609295845
v -0.258819043636322 0.9659258127212524 -6.339238252387527e-17
v -0.5 0.8660253882408142 0
v -0.4619397521018982 0.8660253882408142 0.19134171307086945
v -0.3535533845424652 0.8660253882408142 0.3535533845424652
v -0.19134171307086945 0.8660253882408142 0.4619397521018982
v -3.0616171314629196e-17 0.8660253882408142 0.5
v 0.19134171307086945 0.8660253882408142 0.4619397521018982
v 0.3535533845424652 0.8660253882408142 0.3535533845424652
v 0.4619397521018982 0.8660253882408142 0.19134171307086945
v 0.5 0.8660253882408142 6.123234262925839e-17
v 0.4619397521018982 0.8660253882408142 -0.19134171307086945
v 0.3535533845424652 0.8660253882408142 -0.3535533845424652
v 0.19134171307086945 0.8660253882408142 -0.4619397521018982
v 9.184850732644269e-17 0.8660253882408142 -0.5
v -0.19134171307086945 0.8660253882408142 -0.4619397521018982
v -0.3535533845424652 0.8660253882408142 -0.3535533845424652
v -0.4619397521018982 0.8660253882408142 -0.19134171307086945
v -0.5 0.8660253882408142 -1.2246468525851679e-16
v -0.7071067690849304 0.7071067690849304 0
v -0.6532815098762512 0.7071067690849304 0.27059805393218994
v -0.5 0.7071067690849304 0.5
v -0.27059805393218994 0.7071067690849304 0.6532815098762512
v -4.329780301713277e-17 0.7071067690849304 0.7071067690849304
v 0.27059805393218994 0.7071067690849304 0.6532815098762512
v 0.5 0.7071067690849304 0.5
v 0.6532815098762512 0.7071067690849304 0.27059805393218994
v 0.7071067690849304 0.7071067690849304 8.659560603426554e-17
v 0.6532815098762512 0.7071067690849304 -0.27059805393218994
v 0.5 0.7071067690849304 -0.5
v 0.27059805393218994 0.7071067690849304 -0.6532815098762512
v 1.2989340243395341e-16 0.7071067690849304 -0.7071067690849304
v -0.27059805393218994 0.7071067690849304 -0.6532815098762512
v -0.5 0.7071067690849304 -0.5
v -0.6532815098762512 0.7071067690849304 -0.27059805393218994
v -0.7071067690849304 0.7071067690849304 -1.7319121206853109e-16
v -0.8660253882408142 0.5 0
v -0.8001031279563904 0.5 0.3314135670661926
v -0.6123724579811096 0.5 0.6123724579811096
v -0.3314135670661926 0.5 0.8001031279563904
v -5.302876236065149e-17 0.5 0.8660253882408142
v 0.3314135670661926 0.5 0.8001031279563904
v 0.6123724579811096 0.5 0.6123724579811096
v 0.8001031279563904 0.5 0.3314135670661926
v 0.8660253882408142 0.5 1.0605752472130298e-16
v 0.8001031279563904 0.5 -0.3314135670661926
v 0.6123724579811096 0.5 -0.6123724579811096
v 0.3314135670661926 0.5 -0.8001031279563904
v 1.5908628708195447e-16 0.5 -0.8660253882408142
v -0.3314135670661926 0.5 -0.8001031279563904
v -0.6123724579811096 0.5 -0.6123724579811096
v -0.8001031279563904 0.5 -0.3314135670661926
v -0.8660253882408142 0.5 -2.1211504944260596e-16
v -0.9659258127212524 0.258819043636322 0
v -0.8923990726470947 0.258819043636322 0.36964380741119385
v -0.6830127239227295 0.258819043636322 0.6830127239227295
v -0.36964380741119385 0.258819043636322 0.8923990726470947
v -5.914589533937914e-17 0.258819043636322 0.9659258127212524
v 0.36964380741119385 0.258819043636322 0.8923990726470947
v 0.6830127239227295 0.258819043636322 0.6830127239227295
v 0.8923990726470947 0.258819043636322 0.36964380741119385
v 0.9659258127212524 0.258819043636322 1.1829179067875828e-16
v 0.8923990726470947 0.258819043636322 -0.36964380741119385
v 0.6830127239227295 0.258819043636322 -0.6830127239227295
v 0.36964380741119385 0.258819043636322 -0.8923990726470947
v 1.7743769263558231e-16 0.258819043636322 -0.9659258127212524
v -0.36964380741119385 0.258819043636322 -0.8923990726470947
v -0.6830127239227295 0.258819043636322 -0.6830127239227295
v -0.8923990726470947 0.258819043636322 -0.36964380741119385
v -0.9659258127212524 0.258819043636322 -2.3658358135751655e-16
v -1 6.123234262925839e-17 0
v -0.9238795042037964 6.123234262925839e-17 0.3826834261417389
v -0.7071067690849304 6.123234262925839e-17 0.7071067690849304
v -0.3826834261417389 6.123234262925839e-17 0.9238795042037964
v -6.123234262925839e-17 6.123234262925839e-17 1
v 0.3826834261417389 6.123234262925839e-17 0.9238795042037964
v 0.7071067690849304 6.123234262925839e-17 0.7071067690849304
v 0.9238795042037964 6.123234262925839e-17 0.3826834261417389
v 1 6.123234262925839e-17 1.2246468525851679e-16
v 0.9238795042037964 6.123234262925839e-17 -0.3826834261417389
v 0.7071067690849304 6.123234262925839e-17 -0.7071067690849304
v 0.3826834261417389 6.123234262925839e-17 -0.9238795042037964
v 1.8369701465288538e-16 6.123234262925839e-17 -1
v -0.3826834261417389 6.123234262925839e-17 -0.9238795042037964
v -0.7071067690849304 6.123234262925839e-17 -0.7071067690849304
v -0.9238795042037964 6.123234262925839e-17 -0.3826834261417389
v -1 6.123234262925839e-17 -2.4492937051703357e-16
v -0.9659258127212524 -0.258819043636322 0
v -0.8923990726470947 -0.258819043636322 0.36964380741119385
v -0.6830127239227295 -0.258819043636322 0.6830127239227295
v -0.36964380741119385 -0.258819043636322 0.8923990726470947
v -5.914589533937914e-17 -0.258819043636322 0.9659258127212524
v 0.36964380741119385 -0.258819043636322 0.8923990726470947
v 0.6830127239227295 -0.258819043636322 0.6830127239227295
v 0.8923990726470947 -0.258819043636322 0.36964380741119385
v 0.9659258127212524 -0.258819043636322 1.1829179067875828e-16
v 0.8923990726470947 -0.258819043636322 -0.36964380741119385
v 0.6830127239227295 -0.258819043636322 -0.6830127239227295
v 0.36964380741119385 -0.258819043636322 -0.8923990726470947
v 1.7743769263558231e-16 -0.258819043636322 -0.9659258127212524
v -0.36964380741119385 -0.258819043636322 -0.8923990726470947
v -0.6830127239227295 -0.258819043636322 -0.6830127239227295
v -0.8923990726470947 -0.258819043636322 -0.36964380741119385
v -0.9659258127212524 -0.258819043636322 -2.3658358135751655e-16
v -0.8660253882408142 -0.5 0
v -0.8001031279563904 -0.5 0.3314135670661926
v -0.6123724579811096 -0.5 0.6123724579811096
v -0.3314135670661926 -0.5 0.8001031279563904
v -5.302876236065149e-17 -0.5 0.8660253882408142
v 0.3314135670661926 -0.5 0.8001031279563904
v 0.6123724579811096 -0.5 0.6123724579811096
v 0.8001031279563904 -0.5 0.3314135670661926
v 0.8660253882408142 -0.5 1.0605752472130298e-16
v 0.8001031279563904 -0.5 -0.3314135670661926
v 0.6123724579811096 -0.5 -0.6123724579811096
v 0.3314135670661926 -0.5 -0.8001031279563904
v 1.5908628708195447e-16 -0.5 -0.8660253882408142
v -0.3314135670661926 -0.5 -0.8001031279563904
v -0.6123724579811096 -0.5 -0.6123724579811096
v -0.8001031279563904 -0.5 -0.3314135670661926
v -0.8660253882408142 -0.5 -2.1211504944260596e-16
v -0.7071067690849304 -0.7071067690849304 0
v -0.6532815098762512 -0.7071067690849304 0.27059805393218994
v -0.5 -0.7071067690849304 0.5
v -0.27059805393218994 -0.7071067690849304 0.6532815098762512
v -4.329780301713277e-17 -0.7071067690849304 0.7071067690849304
v 0.27059805393218994 -0.7071067690849304 0.6532815098762512
v 0.5 -0.7071067690849304 0.5
v 0.6532815098762512 -0.7071067690849304 0.27059805393218994
v 0.7071067690849304 -0.7071067690849304 8.659560603426554e-17
v 0.6532815098762512 -0.7071067690849304 -0.27059805393218994
v 0.5 -0.7071067690849304 -0.5
v 0.27059805393218994 -0.7071067690849304 -0.6532815098762512
v 1.2989340243395341e-16 -0.7071067690849304 -0.7071067690849304
v -0.27059805393218994 -0.7071067690849304 -0.6532815098762512
v -0.5 -0.7071067690849304 -0.5
v -0.6532815098762512 -0.7071067690849304 -0.27059805393218994
v -0.7071067690849304 -0.7071067690849304 -1.7319121206853109e-16
v -0.5 -0.8660253882408142 0
v -0.4619397521018982 -0.8660253882408142 0.19134171307086945
v -0.3535533845424652 -0.8660253882408142 0.3535533845424652
v -0.19134171307086945 -0.8660253882408142 0.4619397521018982
v -3.0616171314629196e-17 -0.8660253882408142 0.5
v 0.19134171307086945 -0.8660253882408142 0.4619397521018982
v 0.3535533845424652 -0.8660253882408142 0.3535533845424652
v 0.4619397521018982 -0.8660253882408142 0.19134171307086945
v 0.5 -0.8660253882408142 6.123234262925839e-17
v 0.4619397521018982 -0.8660253882408142 -0.19134171307086945
v 0.3535533845424652 -0.8660253882408142 -0.3535533845424652
v 0.19134171307086945 -0.8660253882408142 -0.4619397521018982
v 9.184850732644269e-17 -0.8660253882408142 -0.5
v -0.19134171307086945 -0.8660253882408142 -0.4619397521018982
v -0.3535533845424652 -0.8660253882408142 -0.3535533845424652
v -0.4619397521018982 -0.8660253882408142 -0.19134171307086945
v -0.5 -0.8660253882408142 -1.2246468525851679e-16
v -0.258819043636322 -0.9659258127212524 0
v -0.23911762237548828 -0.9659258127212524 0.0990457609295845
v -0.1830127090215683 -0.9659258127212524 0.1830127090215683
v -0.0990457609295845 -0.9659258127212524 0.23911762237548828
v -1.5848095630968816e-17 -0.9659258127212524 0.258819043636322
v 0.0990457609295845 -0.9659258127212524 0.23911762237548828
v 0.1830127090215683 -0.9659258127212524 0.1830127090215683
v 0.23911762237548828 -0.9659258127212524 0.0990457609295845
v 0.258819043636322 -0.9659258127212524 3.169619126193763e-17
v 0.23911762237548828 -0.9659258127212524 -0.0990457609295845
v 0.1830127090215683 -0.9659258127212524 -0.1830127090215683
v 0.0990457609295845 -0.9659258127212524 -0.23911762237548828
v 4.754428689290645e-17 -0.9659258127212524 -0.258819043636322
v -0.0990457609295845 -0.9659258127212524 -0.23911762237548828
v -0.1830127090215683 -0.9659258127212524 -0.1830127090215683
v -0.23911762237548828 -0.9659258127212524 -0.0990457609295845
v -0.258819043636322 -0.9659258127212524 -6.339238252387527e-17
v -1.2246468525851679e-16 -1 0
v -1.1314261121795038e-16 -1 4.6865204697224915e-17
v -8.659560603426554e-17 -1 8.659560603426554e-17
v -4.6865204697224915e-17 -1 1.1314261121795038e-16
v -7.498798786105971e-33 -1 1.2246468525851679e-16
v 4.6865204697224915e-17 -1 1.1314261121795038e-16
v 8.659560603426554e-17 -1 8.659560603426554e-17
v 1.1314261121795038e-16 -1 4.6865204697224915e-17
v 1.2246468525851679e-16 -1 1.4997597572211942e-32
v 1.1314261121795038e-16 -1 -4.6865204697224915e-17
v 8.659560603426554e-17 -1 -8.659560603426554e-17
v 4.6865204697224915e-17 -1 -1.1314261121795038e-16
v 2.2496396358317913e-32 -1 -1.2246468525851679e-16
v -4.6865204697224915e-17 -1 -1.1314261121795038e-16
v -8.659560603426554e-17 -1 -8.659560603426554e-17
v -1.1314261121795038e-16 -1 -4.6865204697224915e-17
v -1.2246468525851679e-16 -1 -2.9995195144423884e-32
vt 0.03125 1
vt 0.09375 1
vt 0.15625 1
vt 0.21875 1
vt 0.28125 1
vt 0.34375 1
vt 0.40625 1
vt 0.46875 1
vt 0.53125 1
vt 0.59375 1
vt 0.65625 1
vt 0.71875 1
vt 0.78125 1
vt 0.84375 1
vt 0.90625 1
vt 0.96875 1
vt 1.03125 1
vt 0 0.9166666865348816
vt 0.0625 0.9166666865348816
vt 0.125 0.9166666865348816
vt 0.1875 0.9166666865348816
vt 0.25 0.9166666865348816
vt 0.3125 0.9166666865348816
vt 0.375 0.9166666865348816
vt 0.4375 0.9166666865348816
vt 0.5 0.9166666865348816
vt 0.5625 0.9166666865348816
vt 0.625 0.9166666865348816
vt 0.6875 0.9166666865348816
vt 0.75 0.9166666865348816
vt 0.8125 0.9166666865348816
vt 0.875 0.9166666865348816
vt 0.9375 0.9166666865348816
vt 1 0.9166666865348816
vt 0 0.8333333134651184
vt 0.0625 0.8333333134651184
vt 0.125 0.8333333134651184
vt 0.1875 0.8333333134651184
vt 0.25 0.8333333134651184
vt 0.3125 0.8333333134651184
vt 0.375 0.8333333134651184
vt 0.4375 0.8333333134651184
vt 0.5 0.8333333134651184
vt 0.5625 0.8333333134651184
vt 0.625 0.8333333134651184
vt 0.6875 0.8333333134651184
vt 0.75 0.8333333134651184
vt 0.8125 0.8333333134651184
vt 0.875 0.8333333134651184
vt 0.9375 0.8333333134651184
vt 1 0.8333333134651184
vt 0 0.75
vt 0.0625 0.75
vt 0.125 0.75
vt 0.1875 0.75
vt 0.25 0.75
vt 0.3125 0.75
vt 0.375 0.75
vt 0.4375 0.75
vt 0.5 0.75
vt 0.5625 0.75
vt 0.625 0.75
vt 0.6875 0.75
vt 0.75 0.75
vt 0.8125 0.75
vt 0.875 0.75
vt 0.9375 0.75
vt 1 0.75
vt 0 0.6666666865348816
vt 0.0625 0.6666666865348816
vt 0.125 0.6666666865348816
vt 0.1875 0.6666666865348816
vt 0.25 0.6666666865348816
vt 0.3125 0.6666666865348816
vt 0.375 0.6666666865348816
vt 0.4375 0.6666666865348816
vt 0.5 0.6666666865348816
vt 0.5625 0.6666666865348816
vt 0.625 0.6666666865348816
vt 0.6875 0.6666666865348816
vt 0.75 0.6666666865348816
vt 0.8125 0.6666666865348816
vt 0.875 0.6666666865348816
vt 0.9375 0.6666666865348816
vt 1 0.6666666865348816
vt 0 0.5833333134651184
vt 0.0625 0.5833333134651184
vt 0.125 0.5833333134651184
vt 0.1875 0.5833333134651184
vt 0.25 0.5833333134651184
vt 0.3125 0.5833333134651184
vt 0.375 0.5833333134651184
vt 0.4375 0.5833333134651184
vt 0.5 0.5833333134651184
vt 0.5625 0.5833333134651184
vt 0.625 0.5833333134651184
vt 0.6875 0.5833333134651184
vt 0.75 0.5833333134651184
vt 0.8125 0.5833333134651184
vt 0.875 0.5833333134651184
vt 0.9375 0.5833333134651184
vt 1 0.5833333134651184
vt 0 0.5
vt 0.0625 0.5
vt 0.125 0.5
vt 0.1875 0.5
vt 0.25 0.5
vt 0.3125 0.5
vt 0.375 0.5
vt 0.4375 0.5
vt 0.5 0.5
vt 0.5625 0.5
vt 0.625 0.5
vt 0.6875 0.5
vt 0.75 0.5
vt 0.8125 0.5
vt 0.875 0.5
vt 0.9375 0.5
vt 1 0.5
vt 0 0.4166666567325592
vt 0.0625 0.4166666567325592
vt 0.125 0.4166666567325592
vt 0.1875 0.4166666567325592
vt 0.25 0.4166666567325592
vt 0.3125 0.4166666567325592
vt 0.375 0.4166666567325592
vt 0.4375 0.4166666567325592
vt 0.5 0.4166666567325592
vt 0.5625 0.4166666567325592
vt 0.625 0.4166666567325592
vt 0.6875 0.4166666567325592
vt 0.75 0.4166666567325592
vt 0.8125 0.4166666567325592
vt 0.875 0.4166666567325592
vt 0.9375 0.4166666567325592
vt 1 0.4166666567325592
vt 0 0.3333333432674408
vt 0.0625 0.3333333432674408
vt 0.125 0.3333333432674408
vt 0.1875 0.3333333432674408
vt 0.25 0.3333333432674408
vt 0.3125 0.3333333432674408
vt 0.375 0.3333333432674408
vt 0.4375 0.3333333432674408
vt 0.5 0.3333333432674408
vt 0.5625 0.3333333432674408
vt 0.625 0.3333333432674408
vt 0.6875 0.3333333432674408
vt 0.75 0.3333333432674408
vt 0.8125 0.3333333432674408
vt 0.875 0.3333333432674408
vt 0.9375 0.3333333432674408
vt 1 0.3333333432674408
vt 0 0.25
vt 0.0625 0.25
vt 0.125 0.25
vt 0.1875 0.25
vt 0.25 0.25
vt 0.3125 0.25
vt 0.375 0.25
vt 0.4375 0.25
vt 0.5 0.25
vt 0.5625 0.25
vt 0.625 0.25
vt 0.6875 0.25
vt 0.75 0.25
vt 0.8125 0.25
vt 0.875 0.25
vt 0.9375 0.25
vt 1 0.25
vt 0 0.1666666716337204
vt 0.0625 0.1666666716337204
vt 0.125 0.1666666716337204
vt 0.1875 0.1666666716337204
vt 0.25 0.1666666716337204
vt 0.3125 0.1666666716337204
vt 0.375 0.1666666716337204
vt 0.4375 0.1666666716337204
vt 0.5 0.1666666716337204
vt 0.5625 0.1666666716337204
vt 0.625 0.1666666716337204
vt 0.6875 0.1666666716337204
vt 0.75 0.1666666716337204
vt 0.8125 0.1666666716337204
vt 0.875 0.1666666716337204
vt 0.9375 0.1666666716337204
vt 1 0.1666666716337204
vt 0 0.0833333358168602
vt 0.0625 0.0833333358168602
vt 0.125 0.0833333358168602
vt 0.1875 0.0833333358168602
vt 0.25 0.0833333358168602
vt 0.3125 0.0833333358168602
vt 0.375 0.0833333358168602
vt 0.4375 0.0833333358168602
vt 0.5 0.0833333358168602
vt 0.5625 0.0833333358168602
vt 0.625 0.0833333358168602
vt 0.6875 0.0833333358168602
vt 0.75 0.0833333358168602
vt 0.8125 0.0833333358168602
vt 0.875 0.0833333358168602
vt 0.9375 0.0833333358168602
vt 1 0.0833333358168602
vt -0.03125 0
vt 0.03125 0
vt 0.09375 0
vt 0.15625 0
vt 0.21875 0
vt 0.28125 0
vt 0.34375 0
vt 0.40625 0
vt 0.46875 0
vt 0.53125 0
vt 0.59375 0
vt 0.65625 0
vt 0.71875 0
vt 0.78125 0
vt 0.84375 0
vt 0.90625 0
vt 0.96875 0
vn 0 1 0
vn 0 1 0
vn 0 1 0
vn 0 1 0
vn 0 1 0
vn 0 1 0
vn 0 1 0
vn 0 1 0
vn 0 1 0
vn 0 1 0
vn 0 1 0
vn 0 1 0
vn 0 1 0
vn 0 1 0
vn 0 1 0
vn 0 1 0
vn 0 1 0
vn -0.2588190471264927 0.9659258257467466 0
vn -0.2391176252724176 0.9659258244235216 0.0990457621295319
vn -0.18301271094246616 0.9659258228595912 0.18301271094246616
vn -0.0990457621295319 0.9659258244235216 0.2391176252724176
vn -1.5848095844680132e-17 0.9659258257467466 0.2588190471264927
vn 0.0990457621295319 0.9659258244235216 0.2391176252724176
vn 0.18301271094246616 0.9659258228595912 0.18301271094246616
vn 0.2391176252724176 0.9659258244235216 0.0990457621295319
vn 0.2588190471264927 0.9659258257467466 3.1696191689360264e-17
vn 0.2391176252724176 0.9659258244235216 -0.0990457621295319
vn 0.18301271094246616 0.9659258228595912 -0.18301271094246616
vn 0.0990457621295319 0.9659258244235216 -0.2391176252724176
vn 4.75442875340404e-17 0.9659258257467466 -0.2588190471264927
vn -0.0990457621295319 0.9659258244235216 -0.2391176252724176
vn -0.18301271094246616 0.9659258228595912 -0.18301271094246616
vn -0.2391176252724176 0.9659258244235216 -0.0990457621295319
vn -0.2588190471264927 0.9659258257467466 -6.339238337872053e-17
vn -0.5000000067305869 0.8660253998985324 0
vn -0.4619397616154296 0.8660254060763862 0.19134171701150324
vn -0.3535533908144109 0.8660254036038809 0.3535533908144109
vn -0.19134171701150324 0.8660254060763862 0.4619397616154296
vn -3.06161717267588e-17 0.8660253998985324 0.5000000067305869
vn 0.19134171701150324 0.8660254060763862 0.4619397616154296
vn 0.3535533908144109 0.8660254036038809 0.3535533908144109
vn 0.4619397616154296 0.8660254060763862 0.19134171701150324
vn 0.5000000067305869 0.8660253998985324 6.12323434535176e-17
vn 0.4619397616154296 0.8660254060763862 -0.19134171701150324
vn 0.3535533908144109 0.8660254036038809 -0.3535533908144109
vn 0.19134171701150324 0.8660254060763862 -0.4619397616154296
vn 9.18485085628314e-17 0.8660253998985324 -0.5000000067305869
vn -0.19134171701150324 0.8660254060763862 -0.4619397616154296
vn -0.3535533908144109 0.8660254036038809 -0.3535533908144109
vn -0.4619397616154296 0.8660254060763862 -0.19134171701150324
vn -0.5000000067305869 0.8660253998985324 -1.224646869070352e-16
vn -0.7071067811865476 0.7071067811865476 0
vn -0.6532815030743456 0.7071067617226012 0.2705980511147485
vn -0.5000000042785677 0.7071067751357388 0.5000000042785677
vn -0.2705980511147485 0.7071067617226012 0.6532815030743456
vn -4.329780375814312e-17 0.7071067811865476 0.7071067811865476
vn 0.2705980511147485 0.7071067617226012 0.6532815030743456
vn 0.5000000042785677 0.7071067751357388 0.5000000042785677
vn 0.6532815030743456 0.7071067617226012 0.2705980511147485
vn 0.7071067811865476 0.7071067811865476 8.659560751628624e-17
vn 0.6532815030743456 0.7071067617226012 -0.2705980511147485
vn 0.5000000042785677 0.7071067751357388 -0.5000000042785677
vn 0.2705980511147485 0.7071067617226012 -0.6532815030743456
vn 1.2989340465698435e-16 0.7071067811865476 -0.7071067811865476
vn -0.2705980511147485 0.7071067617226012 -0.6532815030743456
vn -0.5000000042785677 0.7071067751357388 -0.5000000042785677
vn -0.6532815030743456 0.7071067617226012 -0.2705980511147485
vn -0.7071067811865476 0.7071067811865476 -1.7319121503257247e-16
vn -0.8660253998985324 0.5000000067305869 0
vn -0.8001031408375959 0.5000000080497158 0.33141357240176267
vn -0.6123724412671231 0.4999999863530877 0.6123724412671231
vn -0.33141357240176267 0.5000000080497158 0.8001031408375959
vn -5.302876307448087e-17 0.5000000067305869 0.8660253998985324
vn 0.33141357240176267 0.5000000080497158 0.8001031408375959
vn 0.6123724412671231 0.4999999863530877 0.6123724412671231
vn 0.8001031408375959 0.5000000080497158 0.33141357240176267
vn 0.8660253998985324 0.5000000067305869 1.0605752614896174e-16
vn 0.8001031408375959 0.5000000080497158 -0.33141357240176267
vn 0.6123724412671231 0.4999999863530877 -0.6123724412671231
vn 0.33141357240176267 0.5000000080497158 -0.8001031408375959
vn 1.5908628922344263e-16 0.5000000067305869 -0.8660253998985324
vn -0.33141357240176267 0.5000000080497158 -0.8001031408375959
vn -0.6123724412671231 0.4999999863530877 -0.6123724412671231
vn -0.8001031408375959 0.5000000080497158 -0.33141357240176267
vn -0.8660253998985324 0.5000000067305869 -2.1211505229792348e-16
vn -0.9659258257467466 0.2588190471264927 0
vn -0.8923990964885816 0.25881905055097604 0.3696438172866613
vn -0.6830127036271734 0.2588190359455774 0.6830127036271734
vn -0.3696438172866613 0.25881905055097604 0.8923990964885816
vn -5.914589613696059e-17 0.2588190471264927 0.9659258257467466
vn 0.3696438172866613 0.25881905055097604 0.8923990964885816
vn 0.6830127036271734 0.2588190359455774 0.6830127036271734
vn 0.8923990964885816 0.25881905055097604 0.3696438172866613
vn 0.9659258257467466 0.2588190471264927 1.1829179227392118e-16
vn 0.8923990964885816 0.25881905055097604 -0.3696438172866613
vn 0.6830127036271734 0.2588190359455774 -0.6830127036271734
vn 0.3696438172866613 0.25881905055097604 -0.8923990964885816
vn 1.7743769502832676e-16 0.2588190471264927 -0.9659258257467466
vn -0.3696438172866613 0.25881905055097604 -0.8923990964885816
vn -0.6830127036271734 0.2588190359455774 -0.6830127036271734
vn -0.8923990964885816 0.25881905055097604 -0.3696438172866613
vn -0.9659258257467466 0.2588190471264927 -2.3658358454784237e-16
vn -1 6.123234262925839e-17 0
vn -0.9238795305660377 6.123234437647952e-17 0.3826834370613369
vn -0.7071067811865476 6.123234367720532e-17 0.7071067811865476
vn -0.3826834370613369 6.123234437647952e-17 0.9238795305660377
vn -6.123234262925839e-17 6.123234262925839e-17 1
vn 0.3826834370613369 6.123234437647952e-17 0.9238795305660377
vn 0.7071067811865476 6.123234367720532e-17 0.7071067811865476
vn 0.9238795305660377 6.123234437647952e-17 0.3826834370613369
vn 1 6.123234262925839e-17 1.2246468525851679e-16
vn 0.9238795305660377 6.123234437647952e-17 -0.3826834370613369
vn 0.7071067811865476 6.123234367720532e-17 -0.7071067811865476
vn 0.3826834370613369 6.123234437647952e-17 -0.9238795305660377
vn 1.8369701465288538e-16 6.123234262925839e-17 -1
vn -0.3826834370613369 6.123234437647952e-17 -0.9238795305660377
vn -0.7071067811865476 6.123234367720532e-17 -0.7071067811865476
vn -0.9238795305660377 6.123234437647952e-17 -0.3826834370613369
vn -1 6.123234262925839e-17 -2.4492937051703357e-16
vn -0.9659258257467466 -0.2588190471264927 0
vn -0.8923990964885816 -0.25881905055097604 0.3696438172866613
vn -0.6830127036271734 -0.2588190359455774 0.6830127036271734
vn -0.3696438172866613 -0.25881905055097604 0.8923990964885816
vn -5.914589613696059e-17 -0.2588190471264927 0.9659258257467466
vn 0.3696438172866613 -0.25881905055097604 0.8923990964885816
vn 0.6830127036271734 -0.2588190359455774 0.6830127036271734
vn 0.8923990964885816 -0.25881905055097604 0.3696438172866613
vn 0.9659258257467466 -0.2588190471264927 1.1829179227392118e-16
vn 0.8923990964885816 -0.25881905055097604 -0.3696438172866613
vn 0.6830127036271734 -0.2588190359455774 -0.6830127036271734
vn 0.3696438172866613 -0.25881905055097604 -0.8923990964885816
vn 1.7743769502832676e-16 -0.2588190471264927 -0.9659258257467466
vn -0.3696438172866613 -0.25881905055097604 -0.8923990964885816
vn -0.6830127036271734 -0.2588190359455774 -0.6830127036271734
vn -0.8923990964885816 -0.25881905055097604 -0.3696438172866613
vn -0.9659258257467466 -0.2588190471264927 -2.3658358454784237e-16
vn -0.8660253998985324 -0.5000000067305869 0
vn -0.8001031408375959 -0.5000000080497158 0.33141357240176267
vn -0.6123724412671231 -0.4999999863530877 0.6123724412671231
vn -0.33141357240176267 -0.5000000080497158 0.8001031408375959
vn -5.302876307448087e-17 -0.5000000067305869 0.8660253998985324
vn 0.33141357240176267 -0.5000000080497158 0.8001031408375959
vn 0.6123724412671231 -0.4999999863530877 0.6123724412671231
vn 0.8001031408375959 -0.5000000080497158 0.33141357240176267
vn 0.8660253998985324 -0.5000000067305869 1.0605752614896174e-16
vn 0.8001031408375959 -0.5000000080497158 -0.33141357240176267
vn 0.6123724412671231 -0.4999999863530877 -0.6123724412671231
vn 0.33141357240176267 -0.5000000080497158 -0.8001031408375959
vn 1.5908628922344263e-16 -0.5000000067305869 -0.8660253998985324
vn -0.33141357240176267 -0.5000000080497158 -0.8001031408375959
vn -0.6123724412671231 -0.4999999863530877 -0.6123724412671231
vn -0.8001031408375959 -0.5000000080497158 -0.33141357240176267
vn -0.8660253998985324 -0.5000000067305869 -2.1211505229792348e-16
vn -0.7071067811865476 -0.7071067811865476 0
vn -0.6532815030743456 -0.7071067617226012 0.2705980511147485
vn -0.5000000042785677 -0.7071067751357388 0.5000000042785677
vn -0.2705980511147485 -0.7071067617226012 0.6532815030743456
vn -4.329780375814312e-17 -0.7071067811865476 0.7071067811865476
vn 0.2705980511147485 -0.7071067617226012 0.6532815030743456
vn 0.5000000042785677 -0.7071067751357388 0.5000000042785677
vn 0.6532815030743456 -0.7071067617226012 0.2705980511147485
vn 0.7071067811865476 -0.7071067811865476 8.659560751628624e-17
vn 0.6532815030743456 -0.7071067617226012 -0.2705980511147485
vn 0.5000000042785677 -0.7071067751357388 -0.5000000042785677
vn 0.2705980511147485 -0.7071067617226012 -0.6532815030743456
vn 1.2989340465698435e-16 -0.7071067811865476 -0.7071067811865476
vn -0.2705980511147485 -0.7071067617226012 -0.6532815030743456
vn -0.5000000042785677 -0.7071067751357388 -0.5000000042785677
vn -0.6532815030743456 -0.7071067617226012 -0.2705980511147485
vn -0.7071067811865476 -0.7071067811865476 -1.7319121503257247e-16
vn -0.5000000067305869 -0.8660253998985324 0
vn -0.4619397616154296 -0.8660254060763862 0.19134171701150324
vn -0.3535533908144109 -0.8660254036038809 0.3535533908144109
vn -0.19134171701150324 -0.8660254060763862 0.4619397616154296
vn -3.06161717267588e-17 -0.8660253998985324 0.5000000067305869
vn 0.19134171701150324 -0.8660254060763862 0.4619397616154296
vn 0.3535533908144109 -0.8660254036038809 0.3535533908144109
vn 0.4619397616154296 -0.8660254060763862 0.19134171701150324
vn 0.5000000067305869 -0.8660253998985324 6.12323434535176e-17
vn 0.4619397616154296 -0.8660254060763862 -0.19134171701150324
vn 0.3535533908144109 -0.8660254036038809 -0.3535533908144109
vn 0.19134171701150324 -0.8660254060763862 -0.4619397616154296
vn 9.18485085628314e-17 -0.8660253998985324 -0.5000000067305869
vn -0.19134171701150324 -0.8660254060763862 -0.4619397616154296
vn -0.3535533908144109 -0.8660254036038809 -0.3535533908144109
vn -0.4619397616154296 -0.8660254060763862 -0.19134171701150324
vn -0.5000000067305869 -0.8660253998985324 -1.224646869070352e-16
vn -0.2588190471264927 -0.9659258257467466 0
vn -0.2391176252724176 -0.9659258244235216 0.0990457621295319
vn -0.18301271094246616 -0.9659258228595912 0.18301271094246616
vn -0.0990457621295319 -0.9659258244235216 0.2391176252724176
vn -1.5848095844680132e-17 -0.9659258257467466 0.2588190471264927
vn 0.0990457621295319 -0.9659258244235216 0.2391176252724176
vn 0.18301271094246616 -0.9659258228595912 0.18301271094246616
vn 0.2391176252724176 -0.9659258244235216 0.0990457621295319
vn 0.2588190471264927 -0.9659258257467466 3.1696191689360264e-17
vn 0.2391176252724176 -0.9659258244235216 -0.0990457621295319
vn 0.18301271094246616 -0.9659258228595912 -0.18301271094246616
vn 0.0990457621295319 -0.9659258244235216 -0.2391176252724176
vn 4.75442875340404e-17 -0.9659258257467466 -0.2588190471264927
vn -0.0990457621295319 -0.9659258244235216 -0.2391176252724176
vn -0.18301271094246616 -0.9659258228595912 -0.18301271094246616
vn -0.2391176252724176 -0.9659258244235216 -0.0990457621295319
vn -0.2588190471264927 -0.9659258257467466 -6.339238337872053e-17
vn -1.2246468525851679e-16 -1 0
vn -1.1314261121795038e-16 -1 4.6865204697224915e-17
vn -8.659560603426554e-17 -1 8.659560603426554e-17
vn -4.6865204697224915e-17 -1 1.1314261121795038e-16
vn -7.498798786105971e-33 -1 1.2246468525851679e-16
vn 4.6865204697224915e-17 -1 1.1314261121795038e-16
vn 8.659560603426554e-17 -1 8.659560603426554e-17
vn 1.1314261121795038e-16 -1 4.6865204697224915e-17
vn 1.2246468525851679e-16 -1 1.4997597572211942e-32
vn 1.1314261121795038e-16 -1 -4.6865204697224915e-17
vn 8.659560603426554e-17 -1 -8.659560603426554e-17
vn 4.6865204697224915e-17 -1 -1.1314261121795038e-16
vn 2.2496396358317913e-32 -1 -1.2246468525851679e-16
vn -4.6865204697224915e-17 -1 -1.1314261121795038e-16
vn -8.659560603426554e-17 -1 -8.659560603426554e-17
vn -1.1314261121795038e-16 -1 -4.6865204697224915e-17
vn -1.2246468525851679e-16 -1 -2.9995195144423884e-32
f 1/1/1 18/18/18 19/19/19
f 2/2/2 19/19/19 20/20/20
f 3/3/3 20/20/20 21/21/21
f 4/4/4 21/21/21 22/22/22
f 5/5/5 22/22/22 23/23/23
f 6/6/6 23/23/23 24/24/24
f 7/7/7 24/24/24 25/25/25
f 8/8/8 25/25/25 26/26/26
f 9/9/9 26/26/26 27/27/27
f 10/10/10 27/27/27 28/28/28
f 11/11/11 28/28/28 29/29/29
f 12/12/12 29/29/29 30/30/30
f 13/13/13 30/30/30 31/31/31
f 14/14/14 31/31/31 32/32/32
f 15/15/15 32/32/32 33/33/33
f 16/16/16 33/33/33 34/34/34
f 19/19/19 18/18/18 36/36/36
f 18/18/18 35/35/35 36/36/36
f 20/20/20 19/19/19 37/37/37
f 19/19/19 36/36/36 37/37/37
f 21/21/21 20/20/20 38/38/38
f 20/20/20 37/37/37 38/38/38
f 22/22/22 21/21/21 39/39/39
f 21/21/21 38/38/38 39/39/39
f 23/23/23 22/22/22 40/40/40
f 22/22/22 39/39/39 40/40/40
f 24/24/24 23/23/23 41/41/41
f 23/23/23 40/40/40 41/41/41
f 25/25/25 24/24/24 42/42/42
f 24/24/24 41/41/41 42/42/42
f 26/26/26 25/25/25 43/43/43
f 25/25/25 42/42/42 43/43/43
f 27/27/27 26/26/26 44/44/44
f 26/26/26 43/43/43 44/44/44
f 28/28/28 27/27/27 45/45/45
f 27/27/27 44/44/44 45/45/45
f 29/29/29 28/28/28 46/46/46
f 28/28/28 45/45/45 46/46/46
f 30/30/30 29/29/29 47/47/47
f 29/29/29 46/46/46 47/47/47
f 31/31/31 30/30/30 48/48/48
f 30/30/30 47/47/47 48/48/48
f 32/32/32 31/31/31 49/49/49
f 31/31/31 48/48/48 49/49/49
f 33/33/33 32/32/32 50/50/50
f 32/32/32 49/49/49 50/50/50
f 34/34/34 33/33/33 51/51/51
f 33/33/33 50/50/50 51/51/51
f 36/36/36 35/35/35 53/53/53
f 35/35/35 52/52/52 53/53/53
f 37/37/37 36/36/36 54/54/54
f 36/36/36 53/53/53 54/54/54
f 38/38/38 37/37/37 55/55/55
f 37/37/37 54/54/54 55/55/55
f 39/39/39 38/38/38 56/56/56
f 38/38/38 55/55/55 56/56/56
f 40/40/40 39/39/39 57/57/57
f 39/39/39 56/56/56 57/57/57
f 41/41/41 40/40/40 58/58/58
f 40/40/40 57/57/57 58/58/58
f 42/42/42 41/41/41 59/59/59
f 41/41/41 58/58/58 59/59/59
f 43/43/43 42/42/42 60/60/60
f 42/42/42 59/59/59 60/60/60
f 44/44/44 43/43/43 61/61/61
f 43/43/43 60/60/60 61/61/61
f 45/45/45 44/44/44 62/62/62
f 44/44/44 61/61/61 62/62/62
f 46/46/46 45/45/45 63/63/63
f 45/45/45 62/62/62 63/63/63
f 47/47/47 46/46/46 64/64/64
f 46/46/46 63/63/63 64/64/64
f 48/48/48 47/47/47 65/65/65
f 47/47/47 64/64/64 65/65/65
f 49/49/49 48/48/48 66/66/66
f 48/48/48 65/65/65 66/66/66
f 50/50/50 49/49/49 67/67/67
f 49/49/49 66/66/66 67/67/67
f 51/51/51 50/50/50 68/68/68
f 50/50/50 67/67/67 68/68/68
f 53/53/53 52/52/52 70/70/70
f 52/52/52 69/69/69 70/70/70
f 54/54/54 53/53/53 71/71/71
f 53/53/53 70/70/70 71/71/71
f 55/55/55 54/54/54 72/72/72
f 54/54/54 71/71/71 72/72/72
f 56/56/56 55/55/55 73/73/73
f 55/55/55 72/72/72 73/73/73
f 57/57/57 56/56/56 74/74/74
f 56/56/56 73/73/73 74/74/74
f 58/58/58 57/57/57 75/75/75
f 57/57/57 74/74/74 75/75/75
f 59/59/59 58/58/58 76/76/76
f 58/58/58 75/75/75 76/76/76
f 60/60/60 59/59/59 77/77/77
f 59/59/59 76/76/76 77/77/77
f 61/61/61 60/60/60 78/78/78
f 60/60/60 77/77/77 78/78/78
f 62/62/62 61/61/61 79/79/79
f 61/61/61 78/78/78 79/79/79
f 63/63/63 62/62/62 80/80/80
f 62/62/62 79/79/79 80/80/80
f 64/64/64 63/63/63 81/81/81
f 63/63/63 80/80/80 81/81/81
f 65/65/65 64/64/64 82/82/82
f 64/64/64 81/81/81 82/82/82
f 66/66/66 65/65/65 83/83/83
f 65/65/65 82/82/82 83/83/83
f 67/67/67 66/66/66 84/84/84
f 66/66/66 83/83/83 84/84/84
f 68/68/68 67/67/67 85/85/85
f 67/67/67 84/84/84 85/85/85
f 70/70/70 69/69/69 87/87/87
f 69/69/69 86/86/86 87/87/87
f 71/71/71 70/70/70 88/88/88
f 70/70/70 87/87/87 88/88/88
f 72/72/72 71/71/71 89/89/89
f 71/71/71 88/88/88 89/89/89
f 73/73/73 72/72/72 90/90/90
f 72/72/72 89/89/89 90/90/90
f 74/74/74 73/73/73 91/91/91
f 73/73/73 90/90/90 91/91/91
f 75/75/75 74/74/74 92/92/92
f 74/74/74 91/91/91 92/92/92
f 76/76/76 75/75/75 93/93/93
f 75/75/75 92/92/92 93/93/93
f 77/77/77 76/76/76 94/94/94
f 76/76/76 93/93/93 94/94/94
f 78/78/78 77/77/77 95/95/95
f 77/77/77 94/94/94 95/95/95
f 79/79/79 78/78/78 96/96/96
f 78/78/78 95/95/95 96/96/96
f 80/80/80 79/79/79 97/97/97
f 79/79/79 96/96/96 97/97/97
f 81/81/81 80/80/80 98/98/98
f 80/80/80 97/97/97 98/98/98
f 82/82/82 81/81/81 99/99/99
f 81/81/81 98/98/98 99/99/99
f 83/83/83 82/82/82 100/100/100
f 82/82/82 99/99/99 100/100/100
f 84/84/84 83/83/83 101/101/101
f 83/83/83 100/100/100 101/101/101
f 85/85/85 84/84/84 102/102/102
f 84/84/84 101/101/101 102/102/102
f 87/87/87 86/86/86 104/104/104
f 86/86/86 103/103/103 104/104/104
f 88/88/88 87/87/87 105/105/105
f 87/87/87 104/104/104 105/105/105
f 89/89/89 88/88/88 106/106/106
f 88/88/88 105/105/105 106/106/106
f 90/90/90 89/89/89 107/107/107
f 89/89/89 106/106/106 107/107/107
f 91/91/91 90/90/90 108/108/108
f 90/90/90 107/107/107 108/108/108
f 92/92/92 91/91/91 109/109/109
f 91/91/91 108/108/108 109/109/109
f 93/93/93 92/92/92 110/110/110
f 92/92/92 109/109/109 110/110/110
f 94/94/94 93/93/93 111/111/111
f 93/93/93 110/110/110 111/111/111
f 95/95/95 94/94/94 112/112/112
f 94/94/94 111/111/111 112/112/112
f 96/96/96 95/95/95 113/113/113
f 95/95/95 112/112/112 113/113/113
f 97/97/97 96/96/96 114/114/114
f 96/96/96 113/113/113 114/114/114
f 98/98/98 97/97/97 115/115/115
f 97/97/97 114/114/114 115/115/115
f 99/99/99 98/98/98 116/116/116
f 98/98/98 115/115/115 116/116/116
f 100/100/100 99/99/99 117/117/117
f 99/99/99 116/116/116 117/117/117
f 101/101/101 100/100/100 118/118/118
f 100/100/100 117/117/117 118/118/118
f 102/102/102 101/101/101 119/119/119
f 101/101/101 118/118/118 119/119/119
f 104/104/104 103/103/103 121/121/121
f 103/103/103 120/120/120 121/121/121
f 105/105/105 104/104/104 122/122/122
f 104/104/104 121/121/121 122/122/122
f 106/106/106 105/105/105 123/123/123
f 105/105/105 122/122/122 123/123/123
f 107/107/107 106/106/106 124/124/124
f 106/106/106 123/123/123 124/124/124
f 108/108/108 107/107/107 125/125/125
f 107/107/107 124/124/124 125/125/125
f 109/109/109 108/108/108 126/126/126
f 108/108/108 125/125/125 126/126/126
f 110/110/110 109/109/109 127/127/127
f 109/109/109 126/126/126 127/127/127
f 111/111/111 110/110/110 128/128/128
f 110/110/110 127/127/127 128/128/128
f 112/112/112 111/111/111 129/129/129
f 111/111/111 128/128/128 129/129/129
f 113/113/113 112/112/112 130/130/130
f 112/112/112 129/129/129 130/130/130
f 114/114/114 113/113/113 131/131/131
f 113/113/113 130/130/130 131/131/131
f 115/115/115 114/114/114 132/132/132
f 114/114/114 131/131/131 132/132/132
f 116/116/116 115/115/115 133/133/133
f 115/115/115 132/132/132 133/133/133
f 117/117/117 116/116/116 134/134/134
f 116/116/116 133/133/133 134/134/134
f 118/118/118 117/117/117 135/135/135
f 117/117/117 134/134/134 135/135/135
f 119/119/119 118/118/118 136/136/136
f 118/118/118 135/135/135 136/136/136
f 121/121/121 120/120/120 138/138/138
f 120/120/120 137/137/137 138/138/138
f 122/122/122 121/121/121 139/139/139
f 121/121/121 138/138/138 139/139/139
f 123/123/123 122/122/122 140/140/140
f 122/122/122 139/139/139 140/140/140
f 124/124/124 123/123/123 141/141/141
f 123/123/123 140/140/140 141/141/141
f 125/125/125 124/124/124 142/142/142
f 124/124/124 141/141/141 142/142/142
f 126/126/126 125/125/125 143/143/143
f 125/125/125 142/142/142 143/143/143
f 127/127/127 126/126/126 144/144/144
f 126/126/126 143/143/143 144/144/144
f 128/128/128 127/127/127 145/145/145
f 127/127/127 144/144/144 145/145/145
f 129/129/129 128/128/128 146/146/146
f 128/128/128 145/145/145 146/146/146
f 130/130/130 129/129/129 147/147/147
f 129/129/129 146/146/146 147/147/147
f 131/131/131 130/130/130 148/148/148
f 130/130/130 147/147/147 148/148/148
f 132/132/132 131/131/131 149/149/149
f 131/131/131 148/148/148 149/149/149
f 133/133/133 132/132/132 150/150/150
f 132/132/132 149/149/149 150/150/150
f 134/134/134 133/133/133 151/151/151
f 133/133/133 150/150/150 151/151/151
f 135/135/135 134/134/134 152/152/152
f 134/134/134 151/151/151 152/152/152
f 136/136/136 135/135/135 153/153/153
f 135/135/135 152/152/152 153/153/153
f 138/138/138 137/137/137 155/155/155
f 137/137/137 154/154/154 155/155/155
f 139/139/139 138/138/138 156/156/156
f 138/138/138 155/155/155 156/156/156
f 140/140/140 139/139/139 157/157/157
f 139/139/139 156/156/156 157/157/157
f 141/141/141 140/140/140 158/158/158
f 140/140/140 157/157/157 158/158/158
f 142/142/142 141/141/141 159/159/159
f 141/141/141 158/158/158 159/159/159
f 143/143/143 142/142/142 160/160/160
f 142/142/142 159/159/159 160/160/160
f 144/144/144 143/143/143 161/161/161
f 143/143/143 160/160/160 161/161/161
f 145/145/145 144/144/144 162/162/162
f 144/144/144 161/161/161 162/162/162
f 146/146/146 145/145/145 163/163/163
f 145/145/145 162/162/162 163/163/163
f 147/147/147 146/146/146 164/164/164
f 146/146/146 163/163/163 164/164/164
f 148/148/148 147/147/147 165/165/165
f 147/147/147 164/164/164 165/165/165
f 149/149/149 148/148/148 166/166/166
f 148/148/148 165/165/165 166/166/166
f 150/150/150 149/149/149 167/167/167
f 149/149/149 166/166/166 167/167/167
f 151/151/151 150/150/150 168/168/168
f 150/150/150 167/167/167 168/168/168
f 152/152/152 151/151/151 169/169/169
f 151/151/151 168/168/168 169/169/169
f 153/153/153 152/152/152 170/170/170
f 152/152/152 169/169/169 170/170/170
f 155/155/155 154/154/154 172/172/172
f 154/154/154 171/171/171 172/172/172
f 156/156/156 155/155/155 173/173/173
f 155/155/155 172/172/172 173/173/173
f 157/157/157 156/156/156 174/174/174
f 156/156/156 173/173/173 174/174/174
f 158/158/158 157/157/157 175/175/175
f 157/157/157 174/174/174 175/175/175
f 159/159/159 158/158/158 176/176/176
f 158/158/158 175/175/175 176/176/176
f 160/160/160 159/159/159 177/177/177
f 159/159/159 176/176/176 177/177/177
f 161/161/161 160/160/160 178/178/178
f 160/160/160 177/177/177 178/178/178
f 162/162/162 161/161/161 179/179/179
f 161/161/161 178/178/178 179/179/179
f 163/163/163 162/162/162 180/180/180
f 162/162/162 179/179/179 180/180/180
f 164/164/164 163/163/163 181/181/181
f 163/163/163 180/180/180 181/181/181
f 165/165/165 164/164/164 182/182/182
f 164/164/164 181/181/181 182/182/182
f 166/166/166 165/165/165 183/183/183
f 165/165/165 182/182/182 183/183/183
f 167/167/167 166/166/166 184/184/184
f 166/166/166 183/183/183 184/184/184
f 168/168/168 167/167/167 185/185/185
f 167/167/167 184/184/184 185/185/185
f 169/169/169 168/168/168 186/186/186
f 168/168/168 185/185/185 186/186/186
f 170/170/170 169/169/169 187/187/187
f 169/169/169 186/186/186 187/187/187
f 172/172/172 171/171/171 189/189/189
f 171/171/171 188/188/188 189/189/189
f 173/173/173 172/172/172 190/190/190
f 172/172/172 189/189/189 190/190/190
f 174/174/174 173/173/173 191/191/191
f 173/173/173 190/190/190 191/191/191
f 175/175/175 174/174/174 192/192/192
f 174/174/174 191/191/191 192/192/192
f 176/176/176 175/175/175 193/193/193
f 175/175/175 192/192/192 193/193/193
f 177/177/177 176/176/176 194/194/194
f 176/176/176 193/193/193 194/194/194
f 178/178/178 177/177/177 195/195/195
f 177/177/177 194/194/194 195/195/195
f 179/179/179 178/178/178 196/196/196
f 178/178/178 195/195/195 196/196/196
f 180/180/180 179/179/179 197/197/197
f 179/179/179 196/196/196 197/197/197
f 181/181/181 180/180/180 198/198/198
f 180/180/180 197/197/197 198/198/198
f 182/182/182 181/181/181 199/199/199
f 181/181/181 198/198/198 199/199/199
f 183/183/183 182/182/182 200/200/200
f 182/182/182 199/199/199 200/200/200
f 184/184/184 183/183/183 201/201/201
f 183/183/183 200/200/200 201/201/201
f 185/185/185 184/184/184 202/202/202
f 184/184/184 201/201/201 202/202/202
f 186/186/186 185/185/185 203/203/203
f 185/185/185 202/202/202 203/203/203
f 187/187/187 186/186/186 204/204/204
f 186/186/186 203/203/203 204/204/204
f 189/189/189 188/188/188 206/206/206
f 190/190/190 189/189/189 207/207/207
f 191/191/191 190/190/190 208/208/208
f 192/192/192 191/191/191 209/209/209
f 193/193/193 192/192/192 210/210/210
f 194/194/194 193/193/193 211/211/211
f 195/195/195 194/194/194 212/212/212
f 196/196/196 195/195/195 213/213/213
f 197/197/197 196/196/196 214/214/214
f 198/198/198 197/197/197 215/215/215
f 199/199/199 198/198/198 216/216/216
f 200/200/200 199/199/199 217/217/217
f 201/201/201 200/200/200 218/218/218
f 202/202/202 201/201/201 219/219/219
f 203/203/203 202/202/202 220/220/220
f 204/204/204 203/203/203 221/221/221

