# Fortaleza das Correntes Congeladas - AthenaEnv / PS2
mtllib citadel_frost.mtl
usemtl citadel_frost
o citadel_relic_0
s off
v 17.92 1.1 1 0.231 0.5808 0.66
v 17.56 1.1 1.623538 0.231 0.5808 0.66
v 17.32 3.9 0.92 0.231 0.5808 0.66
v 17.2 1.1 1 0.1575 0.396 0.45
v 17.56 1.1 1.623538 0.1575 0.396 0.45
v 17.92 1.1 1 0.1575 0.396 0.45
v 17.56 1.1 1.623538 0.2555 0.6424 0.73
v 16.84 1.1 1.623538 0.2555 0.6424 0.73
v 17.32 3.9 0.92 0.2555 0.6424 0.73
v 17.2 1.1 1 0.1575 0.396 0.45
v 16.84 1.1 1.623538 0.1575 0.396 0.45
v 17.56 1.1 1.623538 0.1575 0.396 0.45
v 16.84 1.1 1.623538 0.28 0.704 0.8
v 16.48 1.1 1 0.28 0.704 0.8
v 17.32 3.9 0.92 0.28 0.704 0.8
v 17.2 1.1 1 0.1575 0.396 0.45
v 16.48 1.1 1 0.1575 0.396 0.45
v 16.84 1.1 1.623538 0.1575 0.396 0.45
v 16.48 1.1 1 0.3045 0.7656 0.87
v 16.84 1.1 0.376462 0.3045 0.7656 0.87
v 17.32 3.9 0.92 0.3045 0.7656 0.87
v 17.2 1.1 1 0.1575 0.396 0.45
v 16.84 1.1 0.376462 0.1575 0.396 0.45
v 16.48 1.1 1 0.1575 0.396 0.45
v 16.84 1.1 0.376462 0.329 0.8272 0.94
v 17.56 1.1 0.376462 0.329 0.8272 0.94
v 17.32 3.9 0.92 0.329 0.8272 0.94
v 17.2 1.1 1 0.1575 0.396 0.45
v 17.56 1.1 0.376462 0.1575 0.396 0.45
v 16.84 1.1 0.376462 0.1575 0.396 0.45
v 17.56 1.1 0.376462 0.3535 0.8888 1
v 17.92 1.1 1 0.3535 0.8888 1
v 17.32 3.9 0.92 0.3535 0.8888 1
v 17.2 1.1 1 0.1575 0.396 0.45
v 17.92 1.1 1 0.1575 0.396 0.45
v 17.56 1.1 0.376462 0.1575 0.396 0.45
v 16.78 1 1.3 0.2838 0.462 0.5742
v 16.517426 1 1.661401 0.2838 0.462 0.5742
v 16.32 2.6 1.35 0.2838 0.462 0.5742
v 16.4 1 1.3 0.1935 0.315 0.3915
v 16.517426 1 1.661401 0.1935 0.315 0.3915
v 16.78 1 1.3 0.1935 0.315 0.3915
v 16.517426 1 1.661401 0.31992 0.5208 0.64728
v 16.092574 1 1.523358 0.31992 0.5208 0.64728
v 16.32 2.6 1.35 0.31992 0.5208 0.64728
v 16.4 1 1.3 0.1935 0.315 0.3915
v 16.092574 1 1.523358 0.1935 0.315 0.3915
v 16.517426 1 1.661401 0.1935 0.315 0.3915
v 16.092574 1 1.523358 0.35604 0.5796 0.72036
v 16.092574 1 1.076642 0.35604 0.5796 0.72036
v 16.32 2.6 1.35 0.35604 0.5796 0.72036
v 16.4 1 1.3 0.1935 0.315 0.3915
v 16.092574 1 1.076642 0.1935 0.315 0.3915
v 16.092574 1 1.523358 0.1935 0.315 0.3915
v 16.092574 1 1.076642 0.39216 0.6384 0.79344
v 16.517426 1 0.938599 0.39216 0.6384 0.79344
v 16.32 2.6 1.35 0.39216 0.6384 0.79344
v 16.4 1 1.3 0.1935 0.315 0.3915
v 16.517426 1 0.938599 0.1935 0.315 0.3915
v 16.092574 1 1.076642 0.1935 0.315 0.3915
v 16.517426 1 0.938599 0.42828 0.6972 0.86652
v 16.78 1 1.3 0.42828 0.6972 0.86652
v 16.32 2.6 1.35 0.42828 0.6972 0.86652
v 16.4 1 1.3 0.1935 0.315 0.3915
v 16.78 1 1.3 0.1935 0.315 0.3915
v 16.517426 1 0.938599 0.1935 0.315 0.3915
v 18.34 1 1.2 0.2838 0.462 0.5742
v 18.105066 1 1.523359 0.2838 0.462 0.5742
v 18.06 2.4 1.16 0.2838 0.462 0.5742
v 18 1 1.2 0.1935 0.315 0.3915
v 18.105066 1 1.523359 0.1935 0.315 0.3915
v 18.34 1 1.2 0.1935 0.315 0.3915
v 18.105066 1 1.523359 0.31992 0.5208 0.64728
v 17.724934 1 1.399847 0.31992 0.5208 0.64728
v 18.06 2.4 1.16 0.31992 0.5208 0.64728
v 18 1 1.2 0.1935 0.315 0.3915
v 17.724934 1 1.399847 0.1935 0.315 0.3915
v 18.105066 1 1.523359 0.1935 0.315 0.3915
v 17.724934 1 1.399847 0.35604 0.5796 0.72036
v 17.724934 1 1.000153 0.35604 0.5796 0.72036
v 18.06 2.4 1.16 0.35604 0.5796 0.72036
v 18 1 1.2 0.1935 0.315 0.3915
v 17.724934 1 1.000153 0.1935 0.315 0.3915
v 17.724934 1 1.399847 0.1935 0.315 0.3915
v 17.724934 1 1.000153 0.39216 0.6384 0.79344
v 18.105066 1 0.876641 0.39216 0.6384 0.79344
v 18.06 2.4 1.16 0.39216 0.6384 0.79344
v 18 1 1.2 0.1935 0.315 0.3915
v 18.105066 1 0.876641 0.1935 0.315 0.3915
v 17.724934 1 1.000153 0.1935 0.315 0.3915
v 18.105066 1 0.876641 0.42828 0.6972 0.86652
v 18.34 1 1.2 0.42828 0.6972 0.86652
v 18.06 2.4 1.16 0.42828 0.6972 0.86652
v 18 1 1.2 0.1935 0.315 0.3915
v 18.34 1 1.2 0.1935 0.315 0.3915
v 18.105066 1 0.876641 0.1935 0.315 0.3915
vn -0.84923 -0.195987 -0.490303
vn -0.84923 -0.195987 -0.490303
vn -0.84923 -0.195987 -0.490303
vn 0 1 0
vn 0 1 0
vn 0 1 0
vn 0 -0.243689 -0.969853
vn 0 -0.243689 -0.969853
vn 0 -0.243689 -0.969853
vn 0 1 0
vn 0 1 0
vn 0 1 0
vn 0.83522 -0.264343 -0.482214
vn 0.83522 -0.264343 -0.482214
vn 0.83522 -0.264343 -0.482214
vn 0 1 0
vn 0 1 0
vn 0 1 0
vn 0.841047 -0.23844 0.485579
vn 0.841047 -0.23844 0.485579
vn 0.841047 -0.23844 0.485579
vn 0 1 0
vn 0 1 0
vn 0 1 0
vn 0 -0.190564 0.981675
vn 0 -0.190564 0.981675
vn 0 -0.190564 0.981675
vn 0 1 0
vn 0 1 0
vn 0 1 0
vn -0.853593 -0.168832 0.492822
vn -0.853593 -0.168832 0.492822
vn -0.853593 -0.168832 0.492822
vn 0 1 0
vn 0 1 0
vn 0 1 0
vn -0.791069 -0.209471 -0.574745
vn -0.791069 -0.209471 -0.574745
vn -0.791069 -0.209471 -0.574745
vn 0 1 0
vn 0 1 0
vn 0 1 0
vn 0.305733 -0.145408 -0.940948
vn 0.305733 -0.145408 -0.940948
vn 0.305733 -0.145408 -0.940948
vn 0 1 0
vn 0 1 0
vn 0 1 0
vn 0.990048 -0.140727 0
vn 0.990048 -0.140727 0
vn 0.990048 -0.140727 0
vn 0 1 0
vn 0 1 0
vn 0 1 0
vn 0.302637 -0.20215 0.931422
vn 0.302637 -0.20215 0.931422
vn 0.302637 -0.20215 0.931422
vn 0 1 0
vn 0 1 0
vn 0 1 0
vn -0.784684 -0.243412 0.570106
vn -0.784684 -0.243412 0.570106
vn -0.784684 -0.243412 0.570106
vn 0 1 0
vn 0 1 0
vn 0 1 0
vn -0.796415 -0.175815 -0.578629
vn -0.796415 -0.175815 -0.578629
vn -0.796415 -0.175815 -0.578629
vn 0 1 0
vn 0 1 0
vn 0 1 0
vn 0.300695 -0.230513 -0.925444
vn 0.300695 -0.230513 -0.925444
vn 0.300695 -0.230513 -0.925444
vn 0 1 0
vn 0 1 0
vn 0 1 0
vn 0.972534 -0.232759 0
vn 0.972534 -0.232759 0
vn 0.972534 -0.232759 0
vn 0 1 0
vn 0 1 0
vn 0 1 0
vn 0.303994 -0.179579 0.935596
vn 0.303994 -0.179579 0.935596
vn 0.303994 -0.179579 0.935596
vn 0 1 0
vn 0 1 0
vn 0 1 0
vn -0.800643 -0.143509 0.581701
vn -0.800643 -0.143509 0.581701
vn -0.800643 -0.143509 0.581701
vn 0 1 0
vn 0 1 0
vn 0 1 0
vt 0.508 0.742
vt 0.742 0.742
vt 0.742 0.508
vt 0.508 0.742
vt 0.742 0.508
vt 0.508 0.508
vt 0.508 0.742
vt 0.742 0.742
vt 0.742 0.508
vt 0.508 0.742
vt 0.742 0.508
vt 0.508 0.508
vt 0.508 0.742
vt 0.742 0.742
vt 0.742 0.508
vt 0.508 0.742
vt 0.742 0.508
vt 0.508 0.508
vt 0.508 0.742
vt 0.742 0.742
vt 0.742 0.508
vt 0.508 0.742
vt 0.742 0.508
vt 0.508 0.508
vt 0.508 0.742
vt 0.742 0.742
vt 0.742 0.508
vt 0.508 0.742
vt 0.742 0.508
vt 0.508 0.508
vt 0.508 0.742
vt 0.742 0.742
vt 0.742 0.508
vt 0.508 0.742
vt 0.742 0.508
vt 0.508 0.508
vt 0.508 0.492
vt 0.742 0.492
vt 0.742 0.258
vt 0.508 0.492
vt 0.742 0.258
vt 0.508 0.258
vt 0.508 0.492
vt 0.742 0.492
vt 0.742 0.258
vt 0.508 0.492
vt 0.742 0.258
vt 0.508 0.258
vt 0.508 0.492
vt 0.742 0.492
vt 0.742 0.258
vt 0.508 0.492
vt 0.742 0.258
vt 0.508 0.258
vt 0.508 0.492
vt 0.742 0.492
vt 0.742 0.258
vt 0.508 0.492
vt 0.742 0.258
vt 0.508 0.258
vt 0.508 0.492
vt 0.742 0.492
vt 0.742 0.258
vt 0.508 0.492
vt 0.742 0.258
vt 0.508 0.258
vt 0.508 0.492
vt 0.742 0.492
vt 0.742 0.258
vt 0.508 0.492
vt 0.742 0.258
vt 0.508 0.258
vt 0.508 0.492
vt 0.742 0.492
vt 0.742 0.258
vt 0.508 0.492
vt 0.742 0.258
vt 0.508 0.258
vt 0.508 0.492
vt 0.742 0.492
vt 0.742 0.258
vt 0.508 0.492
vt 0.742 0.258
vt 0.508 0.258
vt 0.508 0.492
vt 0.742 0.492
vt 0.742 0.258
vt 0.508 0.492
vt 0.742 0.258
vt 0.508 0.258
vt 0.508 0.492
vt 0.742 0.492
vt 0.742 0.258
vt 0.508 0.492
vt 0.742 0.258
vt 0.508 0.258
f 1/1/1 2/2/2 3/3/3
f 4/4/4 5/5/5 6/6/6
f 7/7/7 8/8/8 9/9/9
f 10/10/10 11/11/11 12/12/12
f 13/13/13 14/14/14 15/15/15
f 16/16/16 17/17/17 18/18/18
f 19/19/19 20/20/20 21/21/21
f 22/22/22 23/23/23 24/24/24
f 25/25/25 26/26/26 27/27/27
f 28/28/28 29/29/29 30/30/30
f 31/31/31 32/32/32 33/33/33
f 34/34/34 35/35/35 36/36/36
f 37/37/37 38/38/38 39/39/39
f 40/40/40 41/41/41 42/42/42
f 43/43/43 44/44/44 45/45/45
f 46/46/46 47/47/47 48/48/48
f 49/49/49 50/50/50 51/51/51
f 52/52/52 53/53/53 54/54/54
f 55/55/55 56/56/56 57/57/57
f 58/58/58 59/59/59 60/60/60
f 61/61/61 62/62/62 63/63/63
f 64/64/64 65/65/65 66/66/66
f 67/67/67 68/68/68 69/69/69
f 70/70/70 71/71/71 72/72/72
f 73/73/73 74/74/74 75/75/75
f 76/76/76 77/77/77 78/78/78
f 79/79/79 80/80/80 81/81/81
f 82/82/82 83/83/83 84/84/84
f 85/85/85 86/86/86 87/87/87
f 88/88/88 89/89/89 90/90/90
f 91/91/91 92/92/92 93/93/93
f 94/94/94 95/95/95 96/96/96
