# Fortaleza das Correntes Congeladas - AthenaEnv / PS2
mtllib citadel_frost.mtl
usemtl citadel_frost
o citadel_titan_0
s off
v 9.5 9 -51.5 0.091 0.119 0.154
v 6.717514 9 -44.782486 0.091 0.119 0.154
v 4.808326 21.5 -46.691674 0.091 0.119 0.154
v 9.5 9 -51.5 0.091 0.119 0.154
v 4.808326 21.5 -46.691674 0.091 0.119 0.154
v 6.8 21.5 -51.5 0.091 0.119 0.154
v 6.717514 9 -44.782486 0.095875 0.125375 0.16225
v 0 9 -42 0.095875 0.125375 0.16225
v 0 21.5 -44.7 0.095875 0.125375 0.16225
v 6.717514 9 -44.782486 0.095875 0.125375 0.16225
v 0 21.5 -44.7 0.095875 0.125375 0.16225
v 4.808326 21.5 -46.691674 0.095875 0.125375 0.16225
v 0 9 -42 0.10075 0.13175 0.1705
v -6.717514 9 -44.782486 0.10075 0.13175 0.1705
v -4.808326 21.5 -46.691674 0.10075 0.13175 0.1705
v 0 9 -42 0.10075 0.13175 0.1705
v -4.808326 21.5 -46.691674 0.10075 0.13175 0.1705
v 0 21.5 -44.7 0.10075 0.13175 0.1705
v -6.717514 9 -44.782486 0.105625 0.138125 0.17875
v -9.5 9 -51.5 0.105625 0.138125 0.17875
v -6.8 21.5 -51.5 0.105625 0.138125 0.17875
v -6.717514 9 -44.782486 0.105625 0.138125 0.17875
v -6.8 21.5 -51.5 0.105625 0.138125 0.17875
v -4.808326 21.5 -46.691674 0.105625 0.138125 0.17875
v -9.5 9 -51.5 0.1105 0.1445 0.187
v -6.717514 9 -58.217514 0.1105 0.1445 0.187
v -4.808326 21.5 -56.308326 0.1105 0.1445 0.187
v -9.5 9 -51.5 0.1105 0.1445 0.187
v -4.808326 21.5 -56.308326 0.1105 0.1445 0.187
v -6.8 21.5 -51.5 0.1105 0.1445 0.187
v -6.717514 9 -58.217514 0.115375 0.150875 0.19525
v 0 9 -61 0.115375 0.150875 0.19525
v 0 21.5 -58.3 0.115375 0.150875 0.19525
v -6.717514 9 -58.217514 0.115375 0.150875 0.19525
v 0 21.5 -58.3 0.115375 0.150875 0.19525
v -4.808326 21.5 -56.308326 0.115375 0.150875 0.19525
v 0 9 -61 0.12025 0.15725 0.2035
v 6.717514 9 -58.217514 0.12025 0.15725 0.2035
v 4.808326 21.5 -56.308326 0.12025 0.15725 0.2035
v 0 9 -61 0.12025 0.15725 0.2035
v 4.808326 21.5 -56.308326 0.12025 0.15725 0.2035
v 0 21.5 -58.3 0.12025 0.15725 0.2035
v 6.717514 9 -58.217514 0.125125 0.163625 0.21175
v 9.5 9 -51.5 0.125125 0.163625 0.21175
v 6.8 21.5 -51.5 0.125125 0.163625 0.21175
v 6.717514 9 -58.217514 0.125125 0.163625 0.21175
v 6.8 21.5 -51.5 0.125125 0.163625 0.21175
v 4.808326 21.5 -56.308326 0.125125 0.163625 0.21175
v -12.471645 17.5 -53.754757 0.1482 0.1938 0.2508
v -2.633208 17.5 -51.964461 0.1482 0.1938 0.2508
v -3.528355 17.5 -47.045243 0.1482 0.1938 0.2508
v -12.471645 17.5 -53.754757 0.1482 0.1938 0.2508
v -3.528355 17.5 -47.045243 0.1482 0.1938 0.2508
v -13.366792 17.5 -48.835539 0.1482 0.1938 0.2508
v -13.366792 12.5 -48.835539 0.0585 0.0765 0.099
v -3.528355 12.5 -47.045243 0.0585 0.0765 0.099
v -2.633208 12.5 -51.964461 0.0585 0.0765 0.099
v -13.366792 12.5 -48.835539 0.0585 0.0765 0.099
v -2.633208 12.5 -51.964461 0.0585 0.0765 0.099
v -12.471645 12.5 -53.754757 0.0585 0.0765 0.099
v -12.471645 12.5 -53.754757 0.0819 0.1071 0.1386
v -2.633208 12.5 -51.964461 0.0819 0.1071 0.1386
v -2.633208 17.5 -51.964461 0.0819 0.1071 0.1386
v -12.471645 12.5 -53.754757 0.0819 0.1071 0.1386
v -2.633208 17.5 -51.964461 0.0819 0.1071 0.1386
v -12.471645 17.5 -53.754757 0.0819 0.1071 0.1386
v -2.633208 12.5 -51.964461 0.0949 0.1241 0.1606
v -3.528355 12.5 -47.045243 0.0949 0.1241 0.1606
v -3.528355 17.5 -47.045243 0.0949 0.1241 0.1606
v -2.633208 12.5 -51.964461 0.0949 0.1241 0.1606
v -3.528355 17.5 -47.045243 0.0949 0.1241 0.1606
v -2.633208 17.5 -51.964461 0.0949 0.1241 0.1606
v -3.528355 12.5 -47.045243 0.1079 0.1411 0.1826
v -13.366792 12.5 -48.835539 0.1079 0.1411 0.1826
v -13.366792 17.5 -48.835539 0.1079 0.1411 0.1826
v -3.528355 12.5 -47.045243 0.1079 0.1411 0.1826
v -13.366792 17.5 -48.835539 0.1079 0.1411 0.1826
v -3.528355 17.5 -47.045243 0.1079 0.1411 0.1826
v -13.366792 12.5 -48.835539 0.1209 0.1581 0.2046
v -12.471645 12.5 -53.754757 0.1209 0.1581 0.2046
v -12.471645 17.5 -53.754757 0.1209 0.1581 0.2046
v -13.366792 12.5 -48.835539 0.1209 0.1581 0.2046
v -12.471645 17.5 -53.754757 0.1209 0.1581 0.2046
v -13.366792 17.5 -48.835539 0.1209 0.1581 0.2046
v 2.633208 17.5 -51.964461 0.1482 0.1938 0.2508
v 12.471645 17.5 -53.754757 0.1482 0.1938 0.2508
v 13.366792 17.5 -48.835539 0.1482 0.1938 0.2508
v 2.633208 17.5 -51.964461 0.1482 0.1938 0.2508
v 13.366792 17.5 -48.835539 0.1482 0.1938 0.2508
v 3.528355 17.5 -47.045243 0.1482 0.1938 0.2508
v 3.528355 12.5 -47.045243 0.0585 0.0765 0.099
v 13.366792 12.5 -48.835539 0.0585 0.0765 0.099
v 12.471645 12.5 -53.754757 0.0585 0.0765 0.099
v 3.528355 12.5 -47.045243 0.0585 0.0765 0.099
v 12.471645 12.5 -53.754757 0.0585 0.0765 0.099
v 2.633208 12.5 -51.964461 0.0585 0.0765 0.099
v 2.633208 12.5 -51.964461 0.0819 0.1071 0.1386
v 12.471645 12.5 -53.754757 0.0819 0.1071 0.1386
v 12.471645 17.5 -53.754757 0.0819 0.1071 0.1386
v 2.633208 12.5 -51.964461 0.0819 0.1071 0.1386
v 12.471645 17.5 -53.754757 0.0819 0.1071 0.1386
v 2.633208 17.5 -51.964461 0.0819 0.1071 0.1386
v 12.471645 12.5 -53.754757 0.0949 0.1241 0.1606
v 13.366792 12.5 -48.835539 0.0949 0.1241 0.1606
v 13.366792 17.5 -48.835539 0.0949 0.1241 0.1606
v 12.471645 12.5 -53.754757 0.0949 0.1241 0.1606
v 13.366792 17.5 -48.835539 0.0949 0.1241 0.1606
v 12.471645 17.5 -53.754757 0.0949 0.1241 0.1606
v 13.366792 12.5 -48.835539 0.1079 0.1411 0.1826
v 3.528355 12.5 -47.045243 0.1079 0.1411 0.1826
v 3.528355 17.5 -47.045243 0.1079 0.1411 0.1826
v 13.366792 12.5 -48.835539 0.1079 0.1411 0.1826
v 3.528355 17.5 -47.045243 0.1079 0.1411 0.1826
v 13.366792 17.5 -48.835539 0.1079 0.1411 0.1826
v 3.528355 12.5 -47.045243 0.1209 0.1581 0.2046
v 2.633208 12.5 -51.964461 0.1209 0.1581 0.2046
v 2.633208 17.5 -51.964461 0.1209 0.1581 0.2046
v 3.528355 12.5 -47.045243 0.1209 0.1581 0.2046
v 2.633208 17.5 -51.964461 0.1209 0.1581 0.2046
v 3.528355 17.5 -47.045243 0.1209 0.1581 0.2046
v 4.8 20.5 -49.6 0.238 0.28 0.315
v 2.992751 20.5 -45.847209 0.238 0.28 0.315
v 2.493959 26.5 -46.472674 0.238 0.28 0.315
v 4.8 20.5 -49.6 0.238 0.28 0.315
v 2.493959 26.5 -46.472674 0.238 0.28 0.315
v 4 26.5 -49.6 0.238 0.28 0.315
v 2.992751 20.5 -45.847209 0.252571 0.297143 0.334286
v -1.0681 20.5 -44.920346 0.252571 0.297143 0.334286
v -0.890084 26.5 -45.700288 0.252571 0.297143 0.334286
v 2.992751 20.5 -45.847209 0.252571 0.297143 0.334286
v -0.890084 26.5 -45.700288 0.252571 0.297143 0.334286
v 2.493959 26.5 -46.472674 0.252571 0.297143 0.334286
v -1.0681 20.5 -44.920346 0.267143 0.314286 0.353571
v -4.324651 20.5 -47.517358 0.267143 0.314286 0.353571
v -3.603875 26.5 -47.864465 0.267143 0.314286 0.353571
v -1.0681 20.5 -44.920346 0.267143 0.314286 0.353571
v -3.603875 26.5 -47.864465 0.267143 0.314286 0.353571
v -0.890084 26.5 -45.700288 0.267143 0.314286 0.353571
v -4.324651 20.5 -47.517358 0.281714 0.331429 0.372857
v -4.324651 20.5 -51.682642 0.281714 0.331429 0.372857
v -3.603875 26.5 -51.335535 0.281714 0.331429 0.372857
v -4.324651 20.5 -47.517358 0.281714 0.331429 0.372857
v -3.603875 26.5 -51.335535 0.281714 0.331429 0.372857
v -3.603875 26.5 -47.864465 0.281714 0.331429 0.372857
v -4.324651 20.5 -51.682642 0.296286 0.348571 0.392143
v -1.0681 20.5 -54.279654 0.296286 0.348571 0.392143
v -0.890084 26.5 -53.499712 0.296286 0.348571 0.392143
v -4.324651 20.5 -51.682642 0.296286 0.348571 0.392143
v -0.890084 26.5 -53.499712 0.296286 0.348571 0.392143
v -3.603875 26.5 -51.335535 0.296286 0.348571 0.392143
v -1.0681 20.5 -54.279654 0.310857 0.365714 0.411429
v 2.992751 20.5 -53.352791 0.310857 0.365714 0.411429
v 2.493959 26.5 -52.727326 0.310857 0.365714 0.411429
v -1.0681 20.5 -54.279654 0.310857 0.365714 0.411429
v 2.493959 26.5 -52.727326 0.310857 0.365714 0.411429
v -0.890084 26.5 -53.499712 0.310857 0.365714 0.411429
v 2.992751 20.5 -53.352791 0.325429 0.382857 0.430714
v 4.8 20.5 -49.6 0.325429 0.382857 0.430714
v 4 26.5 -49.6 0.325429 0.382857 0.430714
v 2.992751 20.5 -53.352791 0.325429 0.382857 0.430714
v 4 26.5 -49.6 0.325429 0.382857 0.430714
v 2.493959 26.5 -52.727326 0.325429 0.382857 0.430714
v -3.4 28.8 -51.8 0.1482 0.1938 0.2508
v -3.4 28.8 -46.8 0.1482 0.1938 0.2508
v 3.4 28.8 -46.8 0.1482 0.1938 0.2508
v -3.4 28.8 -51.8 0.1482 0.1938 0.2508
v 3.4 28.8 -46.8 0.1482 0.1938 0.2508
v 3.4 28.8 -51.8 0.1482 0.1938 0.2508
v -3.4 25.2 -46.8 0.0572 0.0748 0.0968
v -3.4 25.2 -51.8 0.0572 0.0748 0.0968
v 3.4 25.2 -51.8 0.0572 0.0748 0.0968
v -3.4 25.2 -46.8 0.0572 0.0748 0.0968
v 3.4 25.2 -51.8 0.0572 0.0748 0.0968
v 3.4 25.2 -46.8 0.0572 0.0748 0.0968
v -3.4 25.2 -51.8 0.0936 0.1224 0.1584
v -3.4 28.8 -51.8 0.0936 0.1224 0.1584
v 3.4 28.8 -51.8 0.0936 0.1224 0.1584
v -3.4 25.2 -51.8 0.0936 0.1224 0.1584
v 3.4 28.8 -51.8 0.0936 0.1224 0.1584
v 3.4 25.2 -51.8 0.0936 0.1224 0.1584
v 3.4 25.2 -46.8 0.1183 0.1547 0.2002
v 3.4 25.2 -51.8 0.1183 0.1547 0.2002
v 3.4 28.8 -51.8 0.1183 0.1547 0.2002
v 3.4 25.2 -46.8 0.1183 0.1547 0.2002
v 3.4 28.8 -51.8 0.1183 0.1547 0.2002
v 3.4 28.8 -46.8 0.1183 0.1547 0.2002
v -3.4 25.2 -46.8 0.13 0.17 0.22
v 3.4 25.2 -46.8 0.13 0.17 0.22
v 3.4 28.8 -46.8 0.13 0.17 0.22
v -3.4 25.2 -46.8 0.13 0.17 0.22
v 3.4 28.8 -46.8 0.13 0.17 0.22
v -3.4 28.8 -46.8 0.13 0.17 0.22
v -3.4 25.2 -51.8 0.0806 0.1054 0.1364
v -3.4 25.2 -46.8 0.0806 0.1054 0.1364
v -3.4 28.8 -46.8 0.0806 0.1054 0.1364
v -3.4 25.2 -51.8 0.0806 0.1054 0.1364
v -3.4 28.8 -46.8 0.0806 0.1054 0.1364
v -3.4 28.8 -51.8 0.0806 0.1054 0.1364
v -2.45 25.5 -49.2 0.0792 0.1848 0.2838
v -3.025 25.5 -48.204071 0.0792 0.1848 0.2838
v -6.6 33.5 -48.9 0.0792 0.1848 0.2838
v -3.6 25.5 -49.2 0.054 0.126 0.1935
v -3.025 25.5 -48.204071 0.054 0.126 0.1935
v -2.45 25.5 -49.2 0.054 0.126 0.1935
v -3.025 25.5 -48.204071 0.0876 0.2044 0.3139
v -4.175 25.5 -48.204071 0.0876 0.2044 0.3139
v -6.6 33.5 -48.9 0.0876 0.2044 0.3139
v -3.6 25.5 -49.2 0.054 0.126 0.1935
v -4.175 25.5 -48.204071 0.054 0.126 0.1935
v -3.025 25.5 -48.204071 0.054 0.126 0.1935
v -4.175 25.5 -48.204071 0.096 0.224 0.344
v -4.75 25.5 -49.2 0.096 0.224 0.344
v -6.6 33.5 -48.9 0.096 0.224 0.344
v -3.6 25.5 -49.2 0.054 0.126 0.1935
v -4.75 25.5 -49.2 0.054 0.126 0.1935
v -4.175 25.5 -48.204071 0.054 0.126 0.1935
v -4.75 25.5 -49.2 0.1044 0.2436 0.3741
v -4.175 25.5 -50.195929 0.1044 0.2436 0.3741
v -6.6 33.5 -48.9 0.1044 0.2436 0.3741
v -3.6 25.5 -49.2 0.054 0.126 0.1935
v -4.175 25.5 -50.195929 0.054 0.126 0.1935
v -4.75 25.5 -49.2 0.054 0.126 0.1935
v -4.175 25.5 -50.195929 0.1128 0.2632 0.4042
v -3.025 25.5 -50.195929 0.1128 0.2632 0.4042
v -6.6 33.5 -48.9 0.1128 0.2632 0.4042
v -3.6 25.5 -49.2 0.054 0.126 0.1935
v -3.025 25.5 -50.195929 0.054 0.126 0.1935
v -4.175 25.5 -50.195929 0.054 0.126 0.1935
v -3.025 25.5 -50.195929 0.1212 0.2828 0.4343
v -2.45 25.5 -49.2 0.1212 0.2828 0.4343
v -6.6 33.5 -48.9 0.1212 0.2828 0.4343
v -3.6 25.5 -49.2 0.054 0.126 0.1935
v -2.45 25.5 -49.2 0.054 0.126 0.1935
v -3.025 25.5 -50.195929 0.054 0.126 0.1935
v 4.75 25.5 -49.2 0.0792 0.1848 0.2838
v 4.175 25.5 -48.204071 0.0792 0.1848 0.2838
v 6.6 33.5 -48.9 0.0792 0.1848 0.2838
v 3.6 25.5 -49.2 0.054 0.126 0.1935
v 4.175 25.5 -48.204071 0.054 0.126 0.1935
v 4.75 25.5 -49.2 0.054 0.126 0.1935
v 4.175 25.5 -48.204071 0.0876 0.2044 0.3139
v 3.025 25.5 -48.204071 0.0876 0.2044 0.3139
v 6.6 33.5 -48.9 0.0876 0.2044 0.3139
v 3.6 25.5 -49.2 0.054 0.126 0.1935
v 3.025 25.5 -48.204071 0.054 0.126 0.1935
v 4.175 25.5 -48.204071 0.054 0.126 0.1935
v 3.025 25.5 -48.204071 0.096 0.224 0.344
v 2.45 25.5 -49.2 0.096 0.224 0.344
v 6.6 33.5 -48.9 0.096 0.224 0.344
v 3.6 25.5 -49.2 0.054 0.126 0.1935
v 2.45 25.5 -49.2 0.054 0.126 0.1935
v 3.025 25.5 -48.204071 0.054 0.126 0.1935
v 2.45 25.5 -49.2 0.1044 0.2436 0.3741
v 3.025 25.5 -50.195929 0.1044 0.2436 0.3741
v 6.6 33.5 -48.9 0.1044 0.2436 0.3741
v 3.6 25.5 -49.2 0.054 0.126 0.1935
v 3.025 25.5 -50.195929 0.054 0.126 0.1935
v 2.45 25.5 -49.2 0.054 0.126 0.1935
v 3.025 25.5 -50.195929 0.1128 0.2632 0.4042
v 4.175 25.5 -50.195929 0.1128 0.2632 0.4042
v 6.6 33.5 -48.9 0.1128 0.2632 0.4042
v 3.6 25.5 -49.2 0.054 0.126 0.1935
v 4.175 25.5 -50.195929 0.054 0.126 0.1935
v 3.025 25.5 -50.195929 0.054 0.126 0.1935
v 4.175 25.5 -50.195929 0.1212 0.2828 0.4343
v 4.75 25.5 -49.2 0.1212 0.2828 0.4343
v 6.6 33.5 -48.9 0.1212 0.2828 0.4343
v 3.6 25.5 -49.2 0.054 0.126 0.1935
v 4.75 25.5 -49.2 0.054 0.126 0.1935
v 4.175 25.5 -50.195929 0.054 0.126 0.1935
v 1.4 28.4 -49.2 0.0858 0.1122 0.1452
v 0.7 28.4 -47.987564 0.0858 0.1122 0.1452
v 0 35.9 -49.4 0.0858 0.1122 0.1452
v 0 28.4 -49.2 0.0585 0.0765 0.099
v 0.7 28.4 -47.987564 0.0585 0.0765 0.099
v 1.4 28.4 -49.2 0.0585 0.0765 0.099
v 0.7 28.4 -47.987564 0.0949 0.1241 0.1606
v -0.7 28.4 -47.987564 0.0949 0.1241 0.1606
v 0 35.9 -49.4 0.0949 0.1241 0.1606
v 0 28.4 -49.2 0.0585 0.0765 0.099
v -0.7 28.4 -47.987564 0.0585 0.0765 0.099
v 0.7 28.4 -47.987564 0.0585 0.0765 0.099
v -0.7 28.4 -47.987564 0.104 0.136 0.176
v -1.4 28.4 -49.2 0.104 0.136 0.176
v 0 35.9 -49.4 0.104 0.136 0.176
v 0 28.4 -49.2 0.0585 0.0765 0.099
v -1.4 28.4 -49.2 0.0585 0.0765 0.099
v -0.7 28.4 -47.987564 0.0585 0.0765 0.099
v -1.4 28.4 -49.2 0.1131 0.1479 0.1914
v -0.7 28.4 -50.412436 0.1131 0.1479 0.1914
v 0 35.9 -49.4 0.1131 0.1479 0.1914
v 0 28.4 -49.2 0.0585 0.0765 0.099
v -0.7 28.4 -50.412436 0.0585 0.0765 0.099
v -1.4 28.4 -49.2 0.0585 0.0765 0.099
v -0.7 28.4 -50.412436 0.1222 0.1598 0.2068
v 0.7 28.4 -50.412436 0.1222 0.1598 0.2068
v 0 35.9 -49.4 0.1222 0.1598 0.2068
v 0 28.4 -49.2 0.0585 0.0765 0.099
v 0.7 28.4 -50.412436 0.0585 0.0765 0.099
v -0.7 28.4 -50.412436 0.0585 0.0765 0.099
v 0.7 28.4 -50.412436 0.1313 0.1717 0.2222
v 1.4 28.4 -49.2 0.1313 0.1717 0.2222
v 0 35.9 -49.4 0.1313 0.1717 0.2222
v 0 28.4 -49.2 0.0585 0.0765 0.099
v 1.4 28.4 -49.2 0.0585 0.0765 0.099
v 0.7 28.4 -50.412436 0.0585 0.0765 0.099
v -2.625 26.95 -46.95 0.399 1 1
v -2.625 26.95 -46.45 0.399 1 1
v -1.375 26.95 -46.45 0.399 1 1
v -2.625 26.95 -46.95 0.399 1 1
v -1.375 26.95 -46.45 0.399 1 1
v -1.375 26.95 -46.95 0.399 1 1
v -2.625 26.3 -46.45 0.154 0.3872 0.44
v -2.625 26.3 -46.95 0.154 0.3872 0.44
v -1.375 26.3 -46.95 0.154 0.3872 0.44
v -2.625 26.3 -46.45 0.154 0.3872 0.44
v -1.375 26.3 -46.95 0.154 0.3872 0.44
v -1.375 26.3 -46.45 0.154 0.3872 0.44
v -2.625 26.3 -46.95 0.252 0.6336 0.72
v -2.625 26.95 -46.95 0.252 0.6336 0.72
v -1.375 26.95 -46.95 0.252 0.6336 0.72
v -2.625 26.3 -46.95 0.252 0.6336 0.72
v -1.375 26.95 -46.95 0.252 0.6336 0.72
v -1.375 26.3 -46.95 0.252 0.6336 0.72
v -1.375 26.3 -46.45 0.3185 0.8008 0.91
v -1.375 26.3 -46.95 0.3185 0.8008 0.91
v -1.375 26.95 -46.95 0.3185 0.8008 0.91
v -1.375 26.3 -46.45 0.3185 0.8008 0.91
v -1.375 26.95 -46.95 0.3185 0.8008 0.91
v -1.375 26.95 -46.45 0.3185 0.8008 0.91
v -2.625 26.3 -46.45 0.35 0.88 1
v -1.375 26.3 -46.45 0.35 0.88 1
v -1.375 26.95 -46.45 0.35 0.88 1
v -2.625 26.3 -46.45 0.35 0.88 1
v -1.375 26.95 -46.45 0.35 0.88 1
v -2.625 26.95 -46.45 0.35 0.88 1
v -2.625 26.3 -46.95 0.217 0.5456 0.62
v -2.625 26.3 -46.45 0.217 0.5456 0.62
v -2.625 26.95 -46.45 0.217 0.5456 0.62
v -2.625 26.3 -46.95 0.217 0.5456 0.62
v -2.625 26.95 -46.45 0.217 0.5456 0.62
v -2.625 26.95 -46.95 0.217 0.5456 0.62
v 1.375 26.95 -46.95 0.399 1 1
v 1.375 26.95 -46.45 0.399 1 1
v 2.625 26.95 -46.45 0.399 1 1
v 1.375 26.95 -46.95 0.399 1 1
v 2.625 26.95 -46.45 0.399 1 1
v 2.625 26.95 -46.95 0.399 1 1
v 1.375 26.3 -46.45 0.154 0.3872 0.44
v 1.375 26.3 -46.95 0.154 0.3872 0.44
v 2.625 26.3 -46.95 0.154 0.3872 0.44
v 1.375 26.3 -46.45 0.154 0.3872 0.44
v 2.625 26.3 -46.95 0.154 0.3872 0.44
v 2.625 26.3 -46.45 0.154 0.3872 0.44
v 1.375 26.3 -46.95 0.252 0.6336 0.72
v 1.375 26.95 -46.95 0.252 0.6336 0.72
v 2.625 26.95 -46.95 0.252 0.6336 0.72
v 1.375 26.3 -46.95 0.252 0.6336 0.72
v 2.625 26.95 -46.95 0.252 0.6336 0.72
v 2.625 26.3 -46.95 0.252 0.6336 0.72
v 2.625 26.3 -46.45 0.3185 0.8008 0.91
v 2.625 26.3 -46.95 0.3185 0.8008 0.91
v 2.625 26.95 -46.95 0.3185 0.8008 0.91
v 2.625 26.3 -46.45 0.3185 0.8008 0.91
v 2.625 26.95 -46.95 0.3185 0.8008 0.91
v 2.625 26.95 -46.45 0.3185 0.8008 0.91
v 1.375 26.3 -46.45 0.35 0.88 1
v 2.625 26.3 -46.45 0.35 0.88 1
v 2.625 26.95 -46.45 0.35 0.88 1
v 1.375 26.3 -46.45 0.35 0.88 1
v 2.625 26.95 -46.45 0.35 0.88 1
v 1.375 26.95 -46.45 0.35 0.88 1
v 1.375 26.3 -46.95 0.217 0.5456 0.62
v 1.375 26.3 -46.45 0.217 0.5456 0.62
v 1.375 26.95 -46.45 0.217 0.5456 0.62
v 1.375 26.3 -46.95 0.217 0.5456 0.62
v 1.375 26.95 -46.45 0.217 0.5456 0.62
v 1.375 26.95 -46.95 0.217 0.5456 0.62
v -9.4 8 -52 0.0792 0.1848 0.2838
v -11.2 8 -48.882309 0.0792 0.1848 0.2838
v -14.5 27 -51.6 0.0792 0.1848 0.2838
v -13 8 -52 0.054 0.126 0.1935
v -11.2 8 -48.882309 0.054 0.126 0.1935
v -9.4 8 -52 0.054 0.126 0.1935
v -11.2 8 -48.882309 0.0876 0.2044 0.3139
v -14.8 8 -48.882309 0.0876 0.2044 0.3139
v -14.5 27 -51.6 0.0876 0.2044 0.3139
v -13 8 -52 0.054 0.126 0.1935
v -14.8 8 -48.882309 0.054 0.126 0.1935
v -11.2 8 -48.882309 0.054 0.126 0.1935
v -14.8 8 -48.882309 0.096 0.224 0.344
v -16.6 8 -52 0.096 0.224 0.344
v -14.5 27 -51.6 0.096 0.224 0.344
v -13 8 -52 0.054 0.126 0.1935
v -16.6 8 -52 0.054 0.126 0.1935
v -14.8 8 -48.882309 0.054 0.126 0.1935
v -16.6 8 -52 0.1044 0.2436 0.3741
v -14.8 8 -55.117691 0.1044 0.2436 0.3741
v -14.5 27 -51.6 0.1044 0.2436 0.3741
v -13 8 -52 0.054 0.126 0.1935
v -14.8 8 -55.117691 0.054 0.126 0.1935
v -16.6 8 -52 0.054 0.126 0.1935
v -14.8 8 -55.117691 0.1128 0.2632 0.4042
v -11.2 8 -55.117691 0.1128 0.2632 0.4042
v -14.5 27 -51.6 0.1128 0.2632 0.4042
v -13 8 -52 0.054 0.126 0.1935
v -11.2 8 -55.117691 0.054 0.126 0.1935
v -14.8 8 -55.117691 0.054 0.126 0.1935
v -11.2 8 -55.117691 0.1212 0.2828 0.4343
v -9.4 8 -52 0.1212 0.2828 0.4343
v -14.5 27 -51.6 0.1212 0.2828 0.4343
v -13 8 -52 0.054 0.126 0.1935
v -9.4 8 -52 0.054 0.126 0.1935
v -11.2 8 -55.117691 0.054 0.126 0.1935
v 16.6 8 -52 0.0792 0.1848 0.2838
v 14.8 8 -48.882309 0.0792 0.1848 0.2838
v 14.5 27 -51.6 0.0792 0.1848 0.2838
v 13 8 -52 0.054 0.126 0.1935
v 14.8 8 -48.882309 0.054 0.126 0.1935
v 16.6 8 -52 0.054 0.126 0.1935
v 14.8 8 -48.882309 0.0876 0.2044 0.3139
v 11.2 8 -48.882309 0.0876 0.2044 0.3139
v 14.5 27 -51.6 0.0876 0.2044 0.3139
v 13 8 -52 0.054 0.126 0.1935
v 11.2 8 -48.882309 0.054 0.126 0.1935
v 14.8 8 -48.882309 0.054 0.126 0.1935
v 11.2 8 -48.882309 0.096 0.224 0.344
v 9.4 8 -52 0.096 0.224 0.344
v 14.5 27 -51.6 0.096 0.224 0.344
v 13 8 -52 0.054 0.126 0.1935
v 9.4 8 -52 0.054 0.126 0.1935
v 11.2 8 -48.882309 0.054 0.126 0.1935
v 9.4 8 -52 0.1044 0.2436 0.3741
v 11.2 8 -55.117691 0.1044 0.2436 0.3741
v 14.5 27 -51.6 0.1044 0.2436 0.3741
v 13 8 -52 0.054 0.126 0.1935
v 11.2 8 -55.117691 0.054 0.126 0.1935
v 9.4 8 -52 0.054 0.126 0.1935
v 11.2 8 -55.117691 0.1128 0.2632 0.4042
v 14.8 8 -55.117691 0.1128 0.2632 0.4042
v 14.5 27 -51.6 0.1128 0.2632 0.4042
v 13 8 -52 0.054 0.126 0.1935
v 14.8 8 -55.117691 0.054 0.126 0.1935
v 11.2 8 -55.117691 0.054 0.126 0.1935
v 14.8 8 -55.117691 0.1212 0.2828 0.4343
v 16.6 8 -52 0.1212 0.2828 0.4343
v 14.5 27 -51.6 0.1212 0.2828 0.4343
v 13 8 -52 0.054 0.126 0.1935
v 16.6 8 -52 0.054 0.126 0.1935
v 14.8 8 -55.117691 0.054 0.126 0.1935
vn -0.906015 -0.195699 -0.375284
vn -0.906015 -0.195699 -0.375284
vn -0.906015 -0.195699 -0.375284
vn -0.906015 -0.195699 -0.375284
vn -0.906015 -0.195699 -0.375284
vn -0.906015 -0.195699 -0.375284
vn -0.375284 -0.195699 -0.906015
vn -0.375284 -0.195699 -0.906015
vn -0.375284 -0.195699 -0.906015
vn -0.375284 -0.195699 -0.906015
vn -0.375284 -0.195699 -0.906015
vn -0.375284 -0.195699 -0.906015
vn 0.375284 -0.195699 -0.906015
vn 0.375284 -0.195699 -0.906015
vn 0.375284 -0.195699 -0.906015
vn 0.375284 -0.195699 -0.906015
vn 0.375284 -0.195699 -0.906015
vn 0.375284 -0.195699 -0.906015
vn 0.906015 -0.195699 -0.375284
vn 0.906015 -0.195699 -0.375284
vn 0.906015 -0.195699 -0.375284
vn 0.906015 -0.195699 -0.375284
vn 0.906015 -0.195699 -0.375284
vn 0.906015 -0.195699 -0.375284
vn 0.906015 -0.195699 0.375284
vn 0.906015 -0.195699 0.375284
vn 0.906015 -0.195699 0.375284
vn 0.906015 -0.195699 0.375284
vn 0.906015 -0.195699 0.375284
vn 0.906015 -0.195699 0.375284
vn 0.375284 -0.195699 0.906015
vn 0.375284 -0.195699 0.906015
vn 0.375284 -0.195699 0.906015
vn 0.375284 -0.195699 0.906015
vn 0.375284 -0.195699 0.906015
vn 0.375284 -0.195699 0.906015
vn -0.375284 -0.195699 0.906015
vn -0.375284 -0.195699 0.906015
vn -0.375284 -0.195699 0.906015
vn -0.375284 -0.195699 0.906015
vn -0.375284 -0.195699 0.906015
vn -0.375284 -0.195699 0.906015
vn -0.906015 -0.195699 0.375284
vn -0.906015 -0.195699 0.375284
vn -0.906015 -0.195699 0.375284
vn -0.906015 -0.195699 0.375284
vn -0.906015 -0.195699 0.375284
vn -0.906015 -0.195699 0.375284
vn 0 -1 0
vn 0 -1 0
vn 0 -1 0
vn 0 -1 0
vn 0 -1 0
vn 0 -1 0
vn 0 1 0
vn 0 1 0
vn 0 1 0
vn 0 1 0
vn 0 1 0
vn 0 1 0
vn -0.17903 0 0.983844
vn -0.17903 0 0.983844
vn -0.17903 0 0.983844
vn -0.17903 0 0.983844
vn -0.17903 0 0.983844
vn -0.17903 0 0.983844
vn -0.983844 0 -0.17903
vn -0.983844 0 -0.17903
vn -0.983844 0 -0.17903
vn -0.983844 0 -0.17903
vn -0.983844 0 -0.17903
vn -0.983844 0 -0.17903
vn 0.17903 0 -0.983844
vn 0.17903 0 -0.983844
vn 0.17903 0 -0.983844
vn 0.17903 0 -0.983844
vn 0.17903 0 -0.983844
vn 0.17903 0 -0.983844
vn 0.983844 0 0.17903
vn 0.983844 0 0.17903
vn 0.983844 0 0.17903
vn 0.983844 0 0.17903
vn 0.983844 0 0.17903
vn 0.983844 0 0.17903
vn 0 -1 0
vn 0 -1 0
vn 0 -1 0
vn 0 -1 0
vn 0 -1 0
vn 0 -1 0
vn 0 1 0
vn 0 1 0
vn 0 1 0
vn 0 1 0
vn 0 1 0
vn 0 1 0
vn 0.17903 0 0.983844
vn 0.17903 0 0.983844
vn 0.17903 0 0.983844
vn 0.17903 0 0.983844
vn 0.17903 0 0.983844
vn 0.17903 0 0.983844
vn -0.983844 0 0.17903
vn -0.983844 0 0.17903
vn -0.983844 0 0.17903
vn -0.983844 0 0.17903
vn -0.983844 0 0.17903
vn -0.983844 0 0.17903
vn -0.17903 0 -0.983844
vn -0.17903 0 -0.983844
vn -0.17903 0 -0.983844
vn -0.17903 0 -0.983844
vn -0.17903 0 -0.983844
vn -0.17903 0 -0.983844
vn 0.983844 0 -0.17903
vn 0.983844 0 -0.17903
vn 0.983844 0 -0.17903
vn 0.983844 0 -0.17903
vn 0.983844 0 -0.17903
vn 0.983844 0 -0.17903
vn -0.894537 -0.119272 -0.430787
vn -0.894537 -0.119272 -0.430787
vn -0.894537 -0.119272 -0.430787
vn -0.894537 -0.119272 -0.430787
vn -0.894537 -0.119272 -0.430787
vn -0.894537 -0.119272 -0.430787
vn -0.220933 -0.119272 -0.967969
vn -0.220933 -0.119272 -0.967969
vn -0.220933 -0.119272 -0.967969
vn -0.220933 -0.119272 -0.967969
vn -0.220933 -0.119272 -0.967969
vn -0.220933 -0.119272 -0.967969
vn 0.619039 -0.119272 -0.776251
vn 0.619039 -0.119272 -0.776251
vn 0.619039 -0.119272 -0.776251
vn 0.619039 -0.119272 -0.776251
vn 0.619039 -0.119272 -0.776251
vn 0.619039 -0.119272 -0.776251
vn 0.992862 -0.119272 0
vn 0.992862 -0.119272 0
vn 0.992862 -0.119272 0
vn 0.992862 -0.119272 0
vn 0.992862 -0.119272 0
vn 0.992862 -0.119272 0
vn 0.619039 -0.119272 0.776251
vn 0.619039 -0.119272 0.776251
vn 0.619039 -0.119272 0.776251
vn 0.619039 -0.119272 0.776251
vn 0.619039 -0.119272 0.776251
vn 0.619039 -0.119272 0.776251
vn -0.220933 -0.119272 0.967969
vn -0.220933 -0.119272 0.967969
vn -0.220933 -0.119272 0.967969
vn -0.220933 -0.119272 0.967969
vn -0.220933 -0.119272 0.967969
vn -0.220933 -0.119272 0.967969
vn -0.894537 -0.119272 0.430787
vn -0.894537 -0.119272 0.430787
vn -0.894537 -0.119272 0.430787
vn -0.894537 -0.119272 0.430787
vn -0.894537 -0.119272 0.430787
vn -0.894537 -0.119272 0.430787
vn 0 1 0
vn 0 1 0
vn 0 1 0
vn 0 1 0
vn 0 1 0
vn 0 1 0
vn 0 -1 0
vn 0 -1 0
vn 0 -1 0
vn 0 -1 0
vn 0 -1 0
vn 0 -1 0
vn 0 0 -1
vn 0 0 -1
vn 0 0 -1
vn 0 0 -1
vn 0 0 -1
vn 0 0 -1
vn 1 0 0
vn 1 0 0
vn 1 0 0
vn 1 0 0
vn 1 0 0
vn 1 0 0
vn 0 0 1
vn 0 0 1
vn 0 0 1
vn 0 0 1
vn 0 0 1
vn 0 0 1
vn -1 0 0
vn -1 0 0
vn -1 0 0
vn -1 0 0
vn -1 0 0
vn -1 0 0
vn -0.795446 -0.395416 -0.459251
vn -0.795446 -0.395416 -0.459251
vn -0.795446 -0.395416 -0.459251
vn 0 1 0
vn 0 1 0
vn 0 1 0
vn 0 -0.086664 -0.996238
vn 0 -0.086664 -0.996238
vn 0 -0.086664 -0.996238
vn 0 1 0
vn 0 1 0
vn 0 1 0
vn 0.845973 0.213947 -0.488423
vn 0.845973 0.213947 -0.488423
vn 0.845973 0.213947 -0.488423
vn 0 1 0
vn 0 1 0
vn 0 1 0
vn 0.852101 0.1786 0.491961
vn 0.852101 0.1786 0.491961
vn 0.852101 0.1786 0.491961
vn 0 1 0
vn 0 1 0
vn 0 1 0
vn 0 -0.159907 0.987132
vn 0 -0.159907 0.987132
vn 0 -0.159907 0.987132
vn 0 1 0
vn 0 1 0
vn 0 1 0
vn -0.784376 -0.423877 0.45286
vn -0.784376 -0.423877 0.45286
vn -0.784376 -0.423877 0.45286
vn 0 1 0
vn 0 1 0
vn 0 1 0
vn -0.845973 0.213947 -0.488423
vn -0.845973 0.213947 -0.488423
vn -0.845973 0.213947 -0.488423
vn 0 1 0
vn 0 1 0
vn 0 1 0
vn 0 -0.086664 -0.996238
vn 0 -0.086664 -0.996238
vn 0 -0.086664 -0.996238
vn 0 1 0
vn 0 1 0
vn 0 1 0
vn 0.795446 -0.395416 -0.459251
vn 0.795446 -0.395416 -0.459251
vn 0.795446 -0.395416 -0.459251
vn 0 1 0
vn 0 1 0
vn 0 1 0
vn 0.784376 -0.423877 0.45286
vn 0.784376 -0.423877 0.45286
vn 0.784376 -0.423877 0.45286
vn 0 1 0
vn 0 1 0
vn 0 1 0
vn 0 -0.159907 0.987132
vn 0 -0.159907 0.987132
vn 0 -0.159907 0.987132
vn 0 1 0
vn 0 1 0
vn 0 1 0
vn -0.852101 0.1786 0.491961
vn -0.852101 0.1786 0.491961
vn -0.852101 0.1786 0.491961
vn 0 1 0
vn 0 1 0
vn 0 1 0
vn -0.853063 -0.172372 -0.492516
vn -0.853063 -0.172372 -0.492516
vn -0.853063 -0.172372 -0.492516
vn 0 1 0
vn 0 1 0
vn 0 1 0
vn 0 -0.185071 -0.982725
vn 0 -0.185071 -0.982725
vn 0 -0.185071 -0.982725
vn 0 1 0
vn 0 1 0
vn 0 1 0
vn 0.853063 -0.172372 -0.492516
vn 0.853063 -0.172372 -0.492516
vn 0.853063 -0.172372 -0.492516
vn 0 1 0
vn 0 1 0
vn 0 1 0
vn 0.856653 -0.14672 0.494589
vn 0.856653 -0.14672 0.494589
vn 0.856653 -0.14672 0.494589
vn 0 1 0
vn 0 1 0
vn 0 1 0
vn 0 -0.133778 0.991011
vn 0 -0.133778 0.991011
vn 0 -0.133778 0.991011
vn 0 1 0
vn 0 1 0
vn 0 1 0
vn -0.856653 -0.14672 0.494589
vn -0.856653 -0.14672 0.494589
vn -0.856653 -0.14672 0.494589
vn 0 1 0
vn 0 1 0
vn 0 1 0
vn 0 1 0
vn 0 1 0
vn 0 1 0
vn 0 1 0
vn 0 1 0
vn 0 1 0
vn 0 -1 0
vn 0 -1 0
vn 0 -1 0
vn 0 -1 0
vn 0 -1 0
vn 0 -1 0
vn 0 0 -1
vn 0 0 -1
vn 0 0 -1
vn 0 0 -1
vn 0 0 -1
vn 0 0 -1
vn 1 0 0
vn 1 0 0
vn 1 0 0
vn 1 0 0
vn 1 0 0
vn 1 0 0
vn 0 0 1
vn 0 0 1
vn 0 0 1
vn 0 0 1
vn 0 0 1
vn 0 0 1
vn -1 0 0
vn -1 0 0
vn -1 0 0
vn -1 0 0
vn -1 0 0
vn -1 0 0
vn 0 1 0
vn 0 1 0
vn 0 1 0
vn 0 1 0
vn 0 1 0
vn 0 1 0
vn 0 -1 0
vn 0 -1 0
vn 0 -1 0
vn 0 -1 0
vn 0 -1 0
vn 0 -1 0
vn 0 0 -1
vn 0 0 -1
vn 0 0 -1
vn 0 0 -1
vn 0 0 -1
vn 0 0 -1
vn 1 0 0
vn 1 0 0
vn 1 0 0
vn 1 0 0
vn 1 0 0
vn 1 0 0
vn 0 0 1
vn 0 0 1
vn 0 0 1
vn 0 0 1
vn 0 0 1
vn 0 0 1
vn -1 0 0
vn -1 0 0
vn -1 0 0
vn -1 0 0
vn -1 0 0
vn -1 0 0
vn -0.845455 -0.216662 -0.488123
vn -0.845455 -0.216662 -0.488123
vn -0.845455 -0.216662 -0.488123
vn 0 1 0
vn 0 1 0
vn 0 1 0
vn 0 -0.141595 -0.989925
vn 0 -0.141595 -0.989925
vn 0 -0.141595 -0.989925
vn 0 1 0
vn 0 1 0
vn 0 1 0
vn 0.8629 -0.084885 -0.498195
vn 0.8629 -0.084885 -0.498195
vn 0.8629 -0.084885 -0.498195
vn 0 1 0
vn 0 1 0
vn 0 1 0
vn 0.861179 -0.10565 0.497202
vn 0.861179 -0.10565 0.497202
vn 0.861179 -0.10565 0.497202
vn 0 1 0
vn 0 1 0
vn 0 1 0
vn 0 -0.182048 0.98329
vn 0 -0.182048 0.98329
vn 0 -0.182048 0.98329
vn 0 1 0
vn 0 1 0
vn 0 1 0
vn -0.841539 -0.236115 0.485863
vn -0.841539 -0.236115 0.485863
vn -0.841539 -0.236115 0.485863
vn 0 1 0
vn 0 1 0
vn 0 1 0
vn -0.8629 -0.084885 -0.498195
vn -0.8629 -0.084885 -0.498195
vn -0.8629 -0.084885 -0.498195
vn 0 1 0
vn 0 1 0
vn 0 1 0
vn 0 -0.141595 -0.989925
vn 0 -0.141595 -0.989925
vn 0 -0.141595 -0.989925
vn 0 1 0
vn 0 1 0
vn 0 1 0
vn 0.845455 -0.216662 -0.488123
vn 0.845455 -0.216662 -0.488123
vn 0.845455 -0.216662 -0.488123
vn 0 1 0
vn 0 1 0
vn 0 1 0
vn 0.841539 -0.236115 0.485863
vn 0.841539 -0.236115 0.485863
vn 0.841539 -0.236115 0.485863
vn 0 1 0
vn 0 1 0
vn 0 1 0
vn 0 -0.182048 0.98329
vn 0 -0.182048 0.98329
vn 0 -0.182048 0.98329
vn 0 1 0
vn 0 1 0
vn 0 1 0
vn -0.861179 -0.10565 0.497202
vn -0.861179 -0.10565 0.497202
vn -0.861179 -0.10565 0.497202
vn 0 1 0
vn 0 1 0
vn 0 1 0
vt 0.258 0.742
vt 0.492 0.742
vt 0.492 0.508
vt 0.258 0.742
vt 0.492 0.508
vt 0.258 0.508
vt 0.258 0.742
vt 0.492 0.742
vt 0.492 0.508
vt 0.258 0.742
vt 0.492 0.508
vt 0.258 0.508
vt 0.258 0.742
vt 0.492 0.742
vt 0.492 0.508
vt 0.258 0.742
vt 0.492 0.508
vt 0.258 0.508
vt 0.258 0.742
vt 0.492 0.742
vt 0.492 0.508
vt 0.258 0.742
vt 0.492 0.508
vt 0.258 0.508
vt 0.258 0.742
vt 0.492 0.742
vt 0.492 0.508
vt 0.258 0.742
vt 0.492 0.508
vt 0.258 0.508
vt 0.258 0.742
vt 0.492 0.742
vt 0.492 0.508
vt 0.258 0.742
vt 0.492 0.508
vt 0.258 0.508
vt 0.258 0.742
vt 0.492 0.742
vt 0.492 0.508
vt 0.258 0.742
vt 0.492 0.508
vt 0.258 0.508
vt 0.258 0.742
vt 0.492 0.742
vt 0.492 0.508
vt 0.258 0.742
vt 0.492 0.508
vt 0.258 0.508
vt 0.008 0.242
vt 0.242 0.242
vt 0.242 0.008
vt 0.008 0.242
vt 0.242 0.008
vt 0.008 0.008
vt 0.008 0.242
vt 0.242 0.242
vt 0.242 0.008
vt 0.008 0.242
vt 0.242 0.008
vt 0.008 0.008
vt 0.008 0.242
vt 0.242 0.242
vt 0.242 0.008
vt 0.008 0.242
vt 0.242 0.008
vt 0.008 0.008
vt 0.008 0.242
vt 0.242 0.242
vt 0.242 0.008
vt 0.008 0.242
vt 0.242 0.008
vt 0.008 0.008
vt 0.008 0.242
vt 0.242 0.242
vt 0.242 0.008
vt 0.008 0.242
vt 0.242 0.008
vt 0.008 0.008
vt 0.008 0.242
vt 0.242 0.242
vt 0.242 0.008
vt 0.008 0.242
vt 0.242 0.008
vt 0.008 0.008
vt 0.008 0.242
vt 0.242 0.242
vt 0.242 0.008
vt 0.008 0.242
vt 0.242 0.008
vt 0.008 0.008
vt 0.008 0.242
vt 0.242 0.242
vt 0.242 0.008
vt 0.008 0.242
vt 0.242 0.008
vt 0.008 0.008
vt 0.008 0.242
vt 0.242 0.242
vt 0.242 0.008
vt 0.008 0.242
vt 0.242 0.008
vt 0.008 0.008
vt 0.008 0.242
vt 0.242 0.242
vt 0.242 0.008
vt 0.008 0.242
vt 0.242 0.008
vt 0.008 0.008
vt 0.008 0.242
vt 0.242 0.242
vt 0.242 0.008
vt 0.008 0.242
vt 0.242 0.008
vt 0.008 0.008
vt 0.008 0.242
vt 0.242 0.242
vt 0.242 0.008
vt 0.008 0.242
vt 0.242 0.008
vt 0.008 0.008
vt 0.008 0.742
vt 0.242 0.742
vt 0.242 0.508
vt 0.008 0.742
vt 0.242 0.508
vt 0.008 0.508
vt 0.008 0.742
vt 0.242 0.742
vt 0.242 0.508
vt 0.008 0.742
vt 0.242 0.508
vt 0.008 0.508
vt 0.008 0.742
vt 0.242 0.742
vt 0.242 0.508
vt 0.008 0.742
vt 0.242 0.508
vt 0.008 0.508
vt 0.008 0.742
vt 0.242 0.742
vt 0.242 0.508
vt 0.008 0.742
vt 0.242 0.508
vt 0.008 0.508
vt 0.008 0.742
vt 0.242 0.742
vt 0.242 0.508
vt 0.008 0.742
vt 0.242 0.508
vt 0.008 0.508
vt 0.008 0.742
vt 0.242 0.742
vt 0.242 0.508
vt 0.008 0.742
vt 0.242 0.508
vt 0.008 0.508
vt 0.008 0.742
vt 0.242 0.742
vt 0.242 0.508
vt 0.008 0.742
vt 0.242 0.508
vt 0.008 0.508
vt 0.008 0.492
vt 0.242 0.492
vt 0.242 0.258
vt 0.008 0.492
vt 0.242 0.258
vt 0.008 0.258
vt 0.008 0.492
vt 0.242 0.492
vt 0.242 0.258
vt 0.008 0.492
vt 0.242 0.258
vt 0.008 0.258
vt 0.008 0.492
vt 0.242 0.492
vt 0.242 0.258
vt 0.008 0.492
vt 0.242 0.258
vt 0.008 0.258
vt 0.008 0.492
vt 0.242 0.492
vt 0.242 0.258
vt 0.008 0.492
vt 0.242 0.258
vt 0.008 0.258
vt 0.008 0.492
vt 0.242 0.492
vt 0.242 0.258
vt 0.008 0.492
vt 0.242 0.258
vt 0.008 0.258
vt 0.008 0.492
vt 0.242 0.492
vt 0.242 0.258
vt 0.008 0.492
vt 0.242 0.258
vt 0.008 0.258
vt 0.758 0.992
vt 0.992 0.992
vt 0.992 0.758
vt 0.758 0.992
vt 0.992 0.758
vt 0.758 0.758
vt 0.758 0.992
vt 0.992 0.992
vt 0.992 0.758
vt 0.758 0.992
vt 0.992 0.758
vt 0.758 0.758
vt 0.758 0.992
vt 0.992 0.992
vt 0.992 0.758
vt 0.758 0.992
vt 0.992 0.758
vt 0.758 0.758
vt 0.758 0.992
vt 0.992 0.992
vt 0.992 0.758
vt 0.758 0.992
vt 0.992 0.758
vt 0.758 0.758
vt 0.758 0.992
vt 0.992 0.992
vt 0.992 0.758
vt 0.758 0.992
vt 0.992 0.758
vt 0.758 0.758
vt 0.758 0.992
vt 0.992 0.992
vt 0.992 0.758
vt 0.758 0.992
vt 0.992 0.758
vt 0.758 0.758
vt 0.758 0.992
vt 0.992 0.992
vt 0.992 0.758
vt 0.758 0.992
vt 0.992 0.758
vt 0.758 0.758
vt 0.758 0.992
vt 0.992 0.992
vt 0.992 0.758
vt 0.758 0.992
vt 0.992 0.758
vt 0.758 0.758
vt 0.758 0.992
vt 0.992 0.992
vt 0.992 0.758
vt 0.758 0.992
vt 0.992 0.758
vt 0.758 0.758
vt 0.758 0.992
vt 0.992 0.992
vt 0.992 0.758
vt 0.758 0.992
vt 0.992 0.758
vt 0.758 0.758
vt 0.758 0.992
vt 0.992 0.992
vt 0.992 0.758
vt 0.758 0.992
vt 0.992 0.758
vt 0.758 0.758
vt 0.758 0.992
vt 0.992 0.992
vt 0.992 0.758
vt 0.758 0.992
vt 0.992 0.758
vt 0.758 0.758
vt 0.008 0.742
vt 0.242 0.742
vt 0.242 0.508
vt 0.008 0.742
vt 0.242 0.508
vt 0.008 0.508
vt 0.008 0.742
vt 0.242 0.742
vt 0.242 0.508
vt 0.008 0.742
vt 0.242 0.508
vt 0.008 0.508
vt 0.008 0.742
vt 0.242 0.742
vt 0.242 0.508
vt 0.008 0.742
vt 0.242 0.508
vt 0.008 0.508
vt 0.008 0.742
vt 0.242 0.742
vt 0.242 0.508
vt 0.008 0.742
vt 0.242 0.508
vt 0.008 0.508
vt 0.008 0.742
vt 0.242 0.742
vt 0.242 0.508
vt 0.008 0.742
vt 0.242 0.508
vt 0.008 0.508
vt 0.008 0.742
vt 0.242 0.742
vt 0.242 0.508
vt 0.008 0.742
vt 0.242 0.508
vt 0.008 0.508
vt 0.508 0.742
vt 0.742 0.742
vt 0.742 0.508
vt 0.508 0.742
vt 0.742 0.508
vt 0.508 0.508
vt 0.508 0.742
vt 0.742 0.742
vt 0.742 0.508
vt 0.508 0.742
vt 0.742 0.508
vt 0.508 0.508
vt 0.508 0.742
vt 0.742 0.742
vt 0.742 0.508
vt 0.508 0.742
vt 0.742 0.508
vt 0.508 0.508
vt 0.508 0.742
vt 0.742 0.742
vt 0.742 0.508
vt 0.508 0.742
vt 0.742 0.508
vt 0.508 0.508
vt 0.508 0.742
vt 0.742 0.742
vt 0.742 0.508
vt 0.508 0.742
vt 0.742 0.508
vt 0.508 0.508
vt 0.508 0.742
vt 0.742 0.742
vt 0.742 0.508
vt 0.508 0.742
vt 0.742 0.508
vt 0.508 0.508
vt 0.508 0.742
vt 0.742 0.742
vt 0.742 0.508
vt 0.508 0.742
vt 0.742 0.508
vt 0.508 0.508
vt 0.508 0.742
vt 0.742 0.742
vt 0.742 0.508
vt 0.508 0.742
vt 0.742 0.508
vt 0.508 0.508
vt 0.508 0.742
vt 0.742 0.742
vt 0.742 0.508
vt 0.508 0.742
vt 0.742 0.508
vt 0.508 0.508
vt 0.508 0.742
vt 0.742 0.742
vt 0.742 0.508
vt 0.508 0.742
vt 0.742 0.508
vt 0.508 0.508
vt 0.508 0.742
vt 0.742 0.742
vt 0.742 0.508
vt 0.508 0.742
vt 0.742 0.508
vt 0.508 0.508
vt 0.508 0.742
vt 0.742 0.742
vt 0.742 0.508
vt 0.508 0.742
vt 0.742 0.508
vt 0.508 0.508
vt 0.258 0.492
vt 0.492 0.492
vt 0.492 0.258
vt 0.258 0.492
vt 0.492 0.258
vt 0.258 0.258
vt 0.258 0.492
vt 0.492 0.492
vt 0.492 0.258
vt 0.258 0.492
vt 0.492 0.258
vt 0.258 0.258
vt 0.258 0.492
vt 0.492 0.492
vt 0.492 0.258
vt 0.258 0.492
vt 0.492 0.258
vt 0.258 0.258
vt 0.258 0.492
vt 0.492 0.492
vt 0.492 0.258
vt 0.258 0.492
vt 0.492 0.258
vt 0.258 0.258
vt 0.258 0.492
vt 0.492 0.492
vt 0.492 0.258
vt 0.258 0.492
vt 0.492 0.258
vt 0.258 0.258
vt 0.258 0.492
vt 0.492 0.492
vt 0.492 0.258
vt 0.258 0.492
vt 0.492 0.258
vt 0.258 0.258
vt 0.258 0.492
vt 0.492 0.492
vt 0.492 0.258
vt 0.258 0.492
vt 0.492 0.258
vt 0.258 0.258
vt 0.258 0.492
vt 0.492 0.492
vt 0.492 0.258
vt 0.258 0.492
vt 0.492 0.258
vt 0.258 0.258
vt 0.258 0.492
vt 0.492 0.492
vt 0.492 0.258
vt 0.258 0.492
vt 0.492 0.258
vt 0.258 0.258
vt 0.258 0.492
vt 0.492 0.492
vt 0.492 0.258
vt 0.258 0.492
vt 0.492 0.258
vt 0.258 0.258
vt 0.258 0.492
vt 0.492 0.492
vt 0.492 0.258
vt 0.258 0.492
vt 0.492 0.258
vt 0.258 0.258
vt 0.258 0.492
vt 0.492 0.492
vt 0.492 0.258
vt 0.258 0.492
vt 0.492 0.258
vt 0.258 0.258
f 1/1/1 2/2/2 3/3/3
f 4/4/4 5/5/5 6/6/6
f 7/7/7 8/8/8 9/9/9
f 10/10/10 11/11/11 12/12/12
f 13/13/13 14/14/14 15/15/15
f 16/16/16 17/17/17 18/18/18
f 19/19/19 20/20/20 21/21/21
f 22/22/22 23/23/23 24/24/24
f 25/25/25 26/26/26 27/27/27
f 28/28/28 29/29/29 30/30/30
f 31/31/31 32/32/32 33/33/33
f 34/34/34 35/35/35 36/36/36
f 37/37/37 38/38/38 39/39/39
f 40/40/40 41/41/41 42/42/42
f 43/43/43 44/44/44 45/45/45
f 46/46/46 47/47/47 48/48/48
f 49/49/49 50/50/50 51/51/51
f 52/52/52 53/53/53 54/54/54
f 55/55/55 56/56/56 57/57/57
f 58/58/58 59/59/59 60/60/60
f 61/61/61 62/62/62 63/63/63
f 64/64/64 65/65/65 66/66/66
f 67/67/67 68/68/68 69/69/69
f 70/70/70 71/71/71 72/72/72
f 73/73/73 74/74/74 75/75/75
f 76/76/76 77/77/77 78/78/78
f 79/79/79 80/80/80 81/81/81
f 82/82/82 83/83/83 84/84/84
f 85/85/85 86/86/86 87/87/87
f 88/88/88 89/89/89 90/90/90
f 91/91/91 92/92/92 93/93/93
f 94/94/94 95/95/95 96/96/96
f 97/97/97 98/98/98 99/99/99
f 100/100/100 101/101/101 102/102/102
f 103/103/103 104/104/104 105/105/105
f 106/106/106 107/107/107 108/108/108
f 109/109/109 110/110/110 111/111/111
f 112/112/112 113/113/113 114/114/114
f 115/115/115 116/116/116 117/117/117
f 118/118/118 119/119/119 120/120/120
f 121/121/121 122/122/122 123/123/123
f 124/124/124 125/125/125 126/126/126
f 127/127/127 128/128/128 129/129/129
f 130/130/130 131/131/131 132/132/132
f 133/133/133 134/134/134 135/135/135
f 136/136/136 137/137/137 138/138/138
f 139/139/139 140/140/140 141/141/141
f 142/142/142 143/143/143 144/144/144
f 145/145/145 146/146/146 147/147/147
f 148/148/148 149/149/149 150/150/150
f 151/151/151 152/152/152 153/153/153
f 154/154/154 155/155/155 156/156/156
f 157/157/157 158/158/158 159/159/159
f 160/160/160 161/161/161 162/162/162
f 163/163/163 164/164/164 165/165/165
f 166/166/166 167/167/167 168/168/168
f 169/169/169 170/170/170 171/171/171
f 172/172/172 173/173/173 174/174/174
f 175/175/175 176/176/176 177/177/177
f 178/178/178 179/179/179 180/180/180
f 181/181/181 182/182/182 183/183/183
f 184/184/184 185/185/185 186/186/186
f 187/187/187 188/188/188 189/189/189
f 190/190/190 191/191/191 192/192/192
f 193/193/193 194/194/194 195/195/195
f 196/196/196 197/197/197 198/198/198
f 199/199/199 200/200/200 201/201/201
f 202/202/202 203/203/203 204/204/204
f 205/205/205 206/206/206 207/207/207
f 208/208/208 209/209/209 210/210/210
f 211/211/211 212/212/212 213/213/213
f 214/214/214 215/215/215 216/216/216
f 217/217/217 218/218/218 219/219/219
f 220/220/220 221/221/221 222/222/222
f 223/223/223 224/224/224 225/225/225
f 226/226/226 227/227/227 228/228/228
f 229/229/229 230/230/230 231/231/231
f 232/232/232 233/233/233 234/234/234
f 235/235/235 236/236/236 237/237/237
f 238/238/238 239/239/239 240/240/240
f 241/241/241 242/242/242 243/243/243
f 244/244/244 245/245/245 246/246/246
f 247/247/247 248/248/248 249/249/249
f 250/250/250 251/251/251 252/252/252
f 253/253/253 254/254/254 255/255/255
f 256/256/256 257/257/257 258/258/258
f 259/259/259 260/260/260 261/261/261
f 262/262/262 263/263/263 264/264/264
f 265/265/265 266/266/266 267/267/267
f 268/268/268 269/269/269 270/270/270
f 271/271/271 272/272/272 273/273/273
f 274/274/274 275/275/275 276/276/276
f 277/277/277 278/278/278 279/279/279
f 280/280/280 281/281/281 282/282/282
f 283/283/283 284/284/284 285/285/285
f 286/286/286 287/287/287 288/288/288
f 289/289/289 290/290/290 291/291/291
f 292/292/292 293/293/293 294/294/294
f 295/295/295 296/296/296 297/297/297
f 298/298/298 299/299/299 300/300/300
f 301/301/301 302/302/302 303/303/303
f 304/304/304 305/305/305 306/306/306
f 307/307/307 308/308/308 309/309/309
f 310/310/310 311/311/311 312/312/312
f 313/313/313 314/314/314 315/315/315
f 316/316/316 317/317/317 318/318/318
f 319/319/319 320/320/320 321/321/321
f 322/322/322 323/323/323 324/324/324
f 325/325/325 326/326/326 327/327/327
f 328/328/328 329/329/329 330/330/330
f 331/331/331 332/332/332 333/333/333
f 334/334/334 335/335/335 336/336/336
f 337/337/337 338/338/338 339/339/339
f 340/340/340 341/341/341 342/342/342
f 343/343/343 344/344/344 345/345/345
f 346/346/346 347/347/347 348/348/348
f 349/349/349 350/350/350 351/351/351
f 352/352/352 353/353/353 354/354/354
f 355/355/355 356/356/356 357/357/357
f 358/358/358 359/359/359 360/360/360
f 361/361/361 362/362/362 363/363/363
f 364/364/364 365/365/365 366/366/366
f 367/367/367 368/368/368 369/369/369
f 370/370/370 371/371/371 372/372/372
f 373/373/373 374/374/374 375/375/375
f 376/376/376 377/377/377 378/378/378
f 379/379/379 380/380/380 381/381/381
f 382/382/382 383/383/383 384/384/384
f 385/385/385 386/386/386 387/387/387
f 388/388/388 389/389/389 390/390/390
f 391/391/391 392/392/392 393/393/393
f 394/394/394 395/395/395 396/396/396
f 397/397/397 398/398/398 399/399/399
f 400/400/400 401/401/401 402/402/402
f 403/403/403 404/404/404 405/405/405
f 406/406/406 407/407/407 408/408/408
f 409/409/409 410/410/410 411/411/411
f 412/412/412 413/413/413 414/414/414
f 415/415/415 416/416/416 417/417/417
f 418/418/418 419/419/419 420/420/420
f 421/421/421 422/422/422 423/423/423
f 424/424/424 425/425/425 426/426/426
f 427/427/427 428/428/428 429/429/429
f 430/430/430 431/431/431 432/432/432
f 433/433/433 434/434/434 435/435/435
f 436/436/436 437/437/437 438/438/438
f 439/439/439 440/440/440 441/441/441
f 442/442/442 443/443/443 444/444/444
f 445/445/445 446/446/446 447/447/447
f 448/448/448 449/449/449 450/450/450
