# Fortaleza das Correntes Congeladas - AthenaEnv / PS2
mtllib citadel_frost.mtl
usemtl citadel_frost
o citadel_backdrop_1
s off
v -11.5 -11 -65.243583 0.08484 0.19796 0.30401
v -8 -11 -59.181405 0.08484 0.19796 0.30401
v -15.255541 15 -58.881405 0.08484 0.19796 0.30401
v -15 -11 -59.181405 0.0378 0.0882 0.13545
v -8 -11 -59.181405 0.0378 0.0882 0.13545
v -11.5 -11 -65.243583 0.0378 0.0882 0.13545
v -0.5 -11 -60.71776 0.060192 0.140448 0.215688
v -4 -11 -54.655582 0.060192 0.140448 0.215688
v -8.425815 24 -60.41776 0.060192 0.140448 0.215688
v -7.5 -11 -60.71776 0.04104 0.09576 0.14706
v -4 -11 -54.655582 0.04104 0.09576 0.14706
v -0.5 -11 -60.71776 0.04104 0.09576 0.14706
v -4 -11 -54.655582 0.066576 0.155344 0.238564
v -11 -11 -54.655582 0.066576 0.155344 0.238564
v -8.425815 24 -60.41776 0.066576 0.155344 0.238564
v -7.5 -11 -60.71776 0.04104 0.09576 0.14706
v -11 -11 -54.655582 0.04104 0.09576 0.14706
v -4 -11 -54.655582 0.04104 0.09576 0.14706
v -11 -11 -54.655582 0.07296 0.17024 0.26144
v -14.5 -11 -60.71776 0.07296 0.17024 0.26144
v -8.425815 24 -60.41776 0.07296 0.17024 0.26144
v -7.5 -11 -60.71776 0.04104 0.09576 0.14706
v -14.5 -11 -60.71776 0.04104 0.09576 0.14706
v -11 -11 -54.655582 0.04104 0.09576 0.14706
v -14.5 -11 -60.71776 0.079344 0.185136 0.284316
v -11 -11 -66.779938 0.079344 0.185136 0.284316
v -8.425815 24 -60.41776 0.079344 0.185136 0.284316
v -7.5 -11 -60.71776 0.04104 0.09576 0.14706
v -11 -11 -66.779938 0.04104 0.09576 0.14706
v -14.5 -11 -60.71776 0.04104 0.09576 0.14706
v -11 -11 -66.779938 0.085728 0.200032 0.307192
v -4 -11 -66.779938 0.085728 0.200032 0.307192
v -8.425815 24 -60.41776 0.085728 0.200032 0.307192
v -7.5 -11 -60.71776 0.04104 0.09576 0.14706
v -4 -11 -66.779938 0.04104 0.09576 0.14706
v -11 -11 -66.779938 0.04104 0.09576 0.14706
v -4 -11 -66.779938 0.092112 0.214928 0.330068
v -0.5 -11 -60.71776 0.092112 0.214928 0.330068
v -8.425815 24 -60.41776 0.092112 0.214928 0.330068
v -7.5 -11 -60.71776 0.04104 0.09576 0.14706
v -0.5 -11 -60.71776 0.04104 0.09576 0.14706
v -4 -11 -66.779938 0.04104 0.09576 0.14706
v 7 -11 -62.513605 0.045936 0.107184 0.164604
v 3.5 -11 -56.451427 0.045936 0.107184 0.164604
v 0.494113 17 -62.213605 0.045936 0.107184 0.164604
v 0 -11 -62.513605 0.03132 0.07308 0.11223
v 3.5 -11 -56.451427 0.03132 0.07308 0.11223
v 7 -11 -62.513605 0.03132 0.07308 0.11223
v 3.5 -11 -56.451427 0.050808 0.118552 0.182062
v -3.5 -11 -56.451427 0.050808 0.118552 0.182062
v 0.494113 17 -62.213605 0.050808 0.118552 0.182062
v 0 -11 -62.513605 0.03132 0.07308 0.11223
v -3.5 -11 -56.451427 0.03132 0.07308 0.11223
v 3.5 -11 -56.451427 0.03132 0.07308 0.11223
v -3.5 -11 -56.451427 0.05568 0.12992 0.19952
v -7 -11 -62.513605 0.05568 0.12992 0.19952
v 0.494113 17 -62.213605 0.05568 0.12992 0.19952
v 0 -11 -62.513605 0.03132 0.07308 0.11223
v -7 -11 -62.513605 0.03132 0.07308 0.11223
v -3.5 -11 -56.451427 0.03132 0.07308 0.11223
v -7 -11 -62.513605 0.060552 0.141288 0.216978
v -3.5 -11 -68.575783 0.060552 0.141288 0.216978
v 0.494113 17 -62.213605 0.060552 0.141288 0.216978
v 0 -11 -62.513605 0.03132 0.07308 0.11223
v -3.5 -11 -68.575783 0.03132 0.07308 0.11223
v -7 -11 -62.513605 0.03132 0.07308 0.11223
v -3.5 -11 -68.575783 0.065424 0.152656 0.234436
v 3.5 -11 -68.575783 0.065424 0.152656 0.234436
v 0.494113 17 -62.213605 0.065424 0.152656 0.234436
v 0 -11 -62.513605 0.03132 0.07308 0.11223
v 3.5 -11 -68.575783 0.03132 0.07308 0.11223
v -3.5 -11 -68.575783 0.03132 0.07308 0.11223
v 3.5 -11 -68.575783 0.070296 0.164024 0.251894
v 7 -11 -62.513605 0.070296 0.164024 0.251894
v 0.494113 17 -62.213605 0.070296 0.164024 0.251894
v 0 -11 -62.513605 0.03132 0.07308 0.11223
v 7 -11 -62.513605 0.03132 0.07308 0.11223
v 3.5 -11 -68.575783 0.03132 0.07308 0.11223
v 14.5 -11 -62.917849 0.050688 0.118272 0.181632
v 11 -11 -56.855671 0.050688 0.118272 0.181632
v 8.298487 26 -62.617849 0.050688 0.118272 0.181632
v 7.5 -11 -62.917849 0.03456 0.08064 0.12384
v 11 -11 -56.855671 0.03456 0.08064 0.12384
v 14.5 -11 -62.917849 0.03456 0.08064 0.12384
v 11 -11 -56.855671 0.056064 0.130816 0.200896
v 4 -11 -56.855671 0.056064 0.130816 0.200896
v 8.298487 26 -62.617849 0.056064 0.130816 0.200896
v 7.5 -11 -62.917849 0.03456 0.08064 0.12384
v 4 -11 -56.855671 0.03456 0.08064 0.12384
v 11 -11 -56.855671 0.03456 0.08064 0.12384
v 4 -11 -56.855671 0.06144 0.14336 0.22016
v 0.5 -11 -62.917849 0.06144 0.14336 0.22016
v 8.298487 26 -62.617849 0.06144 0.14336 0.22016
v 7.5 -11 -62.917849 0.03456 0.08064 0.12384
v 0.5 -11 -62.917849 0.03456 0.08064 0.12384
v 4 -11 -56.855671 0.03456 0.08064 0.12384
v 0.5 -11 -62.917849 0.066816 0.155904 0.239424
v 4 -11 -68.980026 0.066816 0.155904 0.239424
v 8.298487 26 -62.617849 0.066816 0.155904 0.239424
v 7.5 -11 -62.917849 0.03456 0.08064 0.12384
v 4 -11 -68.980026 0.03456 0.08064 0.12384
v 0.5 -11 -62.917849 0.03456 0.08064 0.12384
v 4 -11 -68.980026 0.072192 0.168448 0.258688
v 11 -11 -68.980026 0.072192 0.168448 0.258688
v 8.298487 26 -62.617849 0.072192 0.168448 0.258688
v 7.5 -11 -62.917849 0.03456 0.08064 0.12384
v 11 -11 -68.980026 0.03456 0.08064 0.12384
v 4 -11 -68.980026 0.03456 0.08064 0.12384
v 11 -11 -68.980026 0.077568 0.180992 0.277952
v 14.5 -11 -62.917849 0.077568 0.180992 0.277952
v 8.298487 26 -62.617849 0.077568 0.180992 0.277952
v 7.5 -11 -62.917849 0.03456 0.08064 0.12384
v 14.5 -11 -62.917849 0.03456 0.08064 0.12384
v 11 -11 -68.980026 0.03456 0.08064 0.12384
v 22 -11 -61.558831 0.05544 0.12936 0.19866
v 18.5 -11 -55.496653 0.05544 0.12936 0.19866
v 14.300125 19 -61.258831 0.05544 0.12936 0.19866
v 15 -11 -61.558831 0.0378 0.0882 0.13545
v 18.5 -11 -55.496653 0.0378 0.0882 0.13545
v 22 -11 -61.558831 0.0378 0.0882 0.13545
v 18.5 -11 -55.496653 0.06132 0.14308 0.21973
v 11.5 -11 -55.496653 0.06132 0.14308 0.21973
v 14.300125 19 -61.258831 0.06132 0.14308 0.21973
v 15 -11 -61.558831 0.0378 0.0882 0.13545
v 11.5 -11 -55.496653 0.0378 0.0882 0.13545
v 18.5 -11 -55.496653 0.0378 0.0882 0.13545
v 11.5 -11 -55.496653 0.0672 0.1568 0.2408
v 8 -11 -61.558831 0.0672 0.1568 0.2408
v 14.300125 19 -61.258831 0.0672 0.1568 0.2408
v 15 -11 -61.558831 0.0378 0.0882 0.13545
v 8 -11 -61.558831 0.0378 0.0882 0.13545
v 11.5 -11 -55.496653 0.0378 0.0882 0.13545
v 8 -11 -61.558831 0.07308 0.17052 0.26187
v 11.5 -11 -67.621009 0.07308 0.17052 0.26187
v 14.300125 19 -61.258831 0.07308 0.17052 0.26187
v 15 -11 -61.558831 0.0378 0.0882 0.13545
v 11.5 -11 -67.621009 0.0378 0.0882 0.13545
v 8 -11 -61.558831 0.0378 0.0882 0.13545
v 11.5 -11 -67.621009 0.07896 0.18424 0.28294
v 18.5 -11 -67.621009 0.07896 0.18424 0.28294
v 14.300125 19 -61.258831 0.07896 0.18424 0.28294
v 15 -11 -61.558831 0.0378 0.0882 0.13545
v 18.5 -11 -67.621009 0.0378 0.0882 0.13545
v 11.5 -11 -67.621009 0.0378 0.0882 0.13545
v 18.5 -11 -67.621009 0.08484 0.19796 0.30401
v 22 -11 -61.558831 0.08484 0.19796 0.30401
v 14.300125 19 -61.258831 0.08484 0.19796 0.30401
v 15 -11 -61.558831 0.0378 0.0882 0.13545
v 22 -11 -61.558831 0.0378 0.0882 0.13545
v 18.5 -11 -67.621009 0.0378 0.0882 0.13545
v 29.5 -11 -59.686027 0.060192 0.140448 0.215688
v 26 -11 -53.623849 0.060192 0.140448 0.215688
v 21.881863 28 -59.386027 0.060192 0.140448 0.215688
v 22.5 -11 -59.686027 0.04104 0.09576 0.14706
v 26 -11 -53.623849 0.04104 0.09576 0.14706
v 29.5 -11 -59.686027 0.04104 0.09576 0.14706
v 26 -11 -53.623849 0.066576 0.155344 0.238564
v 19 -11 -53.623849 0.066576 0.155344 0.238564
v 21.881863 28 -59.386027 0.066576 0.155344 0.238564
v 22.5 -11 -59.686027 0.04104 0.09576 0.14706
v 19 -11 -53.623849 0.04104 0.09576 0.14706
v 26 -11 -53.623849 0.04104 0.09576 0.14706
v 19 -11 -53.623849 0.07296 0.17024 0.26144
v 15.5 -11 -59.686027 0.07296 0.17024 0.26144
v 21.881863 28 -59.386027 0.07296 0.17024 0.26144
v 22.5 -11 -59.686027 0.04104 0.09576 0.14706
v 15.5 -11 -59.686027 0.04104 0.09576 0.14706
v 19 -11 -53.623849 0.04104 0.09576 0.14706
v 15.5 -11 -59.686027 0.079344 0.185136 0.284316
v 19 -11 -65.748205 0.079344 0.185136 0.284316
v 21.881863 28 -59.386027 0.079344 0.185136 0.284316
v 22.5 -11 -59.686027 0.04104 0.09576 0.14706
v 19 -11 -65.748205 0.04104 0.09576 0.14706
v 15.5 -11 -59.686027 0.04104 0.09576 0.14706
v 19 -11 -65.748205 0.085728 0.200032 0.307192
v 26 -11 -65.748205 0.085728 0.200032 0.307192
v 21.881863 28 -59.386027 0.085728 0.200032 0.307192
v 22.5 -11 -59.686027 0.04104 0.09576 0.14706
v 26 -11 -65.748205 0.04104 0.09576 0.14706
v 19 -11 -65.748205 0.04104 0.09576 0.14706
v 26 -11 -65.748205 0.092112 0.214928 0.330068
v 29.5 -11 -59.686027 0.092112 0.214928 0.330068
v 21.881863 28 -59.386027 0.092112 0.214928 0.330068
v 22.5 -11 -59.686027 0.04104 0.09576 0.14706
v 29.5 -11 -59.686027 0.04104 0.09576 0.14706
v 26 -11 -65.748205 0.04104 0.09576 0.14706
v 37 -11 -59.021284 0.045936 0.107184 0.164604
v 33.5 -11 -52.959106 0.045936 0.107184 0.164604
v 30.859162 21 -58.721284 0.045936 0.107184 0.164604
v 30 -11 -59.021284 0.03132 0.07308 0.11223
v 33.5 -11 -52.959106 0.03132 0.07308 0.11223
v 37 -11 -59.021284 0.03132 0.07308 0.11223
v 33.5 -11 -52.959106 0.050808 0.118552 0.182062
v 26.5 -11 -52.959106 0.050808 0.118552 0.182062
v 30.859162 21 -58.721284 0.050808 0.118552 0.182062
v 30 -11 -59.021284 0.03132 0.07308 0.11223
v 26.5 -11 -52.959106 0.03132 0.07308 0.11223
v 33.5 -11 -52.959106 0.03132 0.07308 0.11223
v 26.5 -11 -52.959106 0.05568 0.12992 0.19952
v 23 -11 -59.021284 0.05568 0.12992 0.19952
v 30.859162 21 -58.721284 0.05568 0.12992 0.19952
v 30 -11 -59.021284 0.03132 0.07308 0.11223
v 23 -11 -59.021284 0.03132 0.07308 0.11223
v 26.5 -11 -52.959106 0.03132 0.07308 0.11223
v 23 -11 -59.021284 0.060552 0.141288 0.216978
v 26.5 -11 -65.083461 0.060552 0.141288 0.216978
v 30.859162 21 -58.721284 0.060552 0.141288 0.216978
v 30 -11 -59.021284 0.03132 0.07308 0.11223
v 26.5 -11 -65.083461 0.03132 0.07308 0.11223
v 23 -11 -59.021284 0.03132 0.07308 0.11223
v 26.5 -11 -65.083461 0.065424 0.152656 0.234436
v 33.5 -11 -65.083461 0.065424 0.152656 0.234436
v 30.859162 21 -58.721284 0.065424 0.152656 0.234436
v 30 -11 -59.021284 0.03132 0.07308 0.11223
v 33.5 -11 -65.083461 0.03132 0.07308 0.11223
v 26.5 -11 -65.083461 0.03132 0.07308 0.11223
v 33.5 -11 -65.083461 0.070296 0.164024 0.251894
v 37 -11 -59.021284 0.070296 0.164024 0.251894
v 30.859162 21 -58.721284 0.070296 0.164024 0.251894
v 30 -11 -59.021284 0.03132 0.07308 0.11223
v 37 -11 -59.021284 0.03132 0.07308 0.11223
v 33.5 -11 -65.083461 0.03132 0.07308 0.11223
vn -0.840672 -0.240198 0.485362
vn -0.840672 -0.240198 0.485362
vn -0.840672 -0.240198 0.485362
vn 0 1 0
vn 0 1 0
vn 0 1 0
vn -0.850518 -0.188392 -0.491047
vn -0.850518 -0.188392 -0.491047
vn -0.850518 -0.188392 -0.491047
vn 0 1 0
vn 0 1 0
vn 0 1 0
vn 0 -0.162447 -0.986717
vn 0 -0.162447 -0.986717
vn 0 -0.162447 -0.986717
vn 0 1 0
vn 0 1 0
vn 0 1 0
vn 0.856939 -0.144479 -0.494754
vn 0.856939 -0.144479 -0.494754
vn 0.856939 -0.144479 -0.494754
vn 0 1 0
vn 0 1 0
vn 0 1 0
vn 0.85586 -0.152768 0.494131
vn 0.85586 -0.152768 0.494131
vn 0.85586 -0.152768 0.494131
vn 0 1 0
vn 0 1 0
vn 0 1 0
vn 0 -0.178846 0.983877
vn 0 -0.178846 0.983877
vn 0 -0.178846 0.983877
vn 0 1 0
vn 0 1 0
vn 0 1 0
vn -0.849143 -0.196492 0.490253
vn -0.849143 -0.196492 0.490253
vn -0.849143 -0.196492 0.490253
vn 0 1 0
vn 0 1 0
vn 0 1 0
vn -0.849877 -0.192214 -0.490676
vn -0.849877 -0.192214 -0.490676
vn -0.849877 -0.192214 -0.490676
vn 0 1 0
vn 0 1 0
vn 0 1 0
vn 0 -0.201568 -0.979475
vn 0 -0.201568 -0.979475
vn 0 -0.201568 -0.979475
vn 0 1 0
vn 0 1 0
vn 0 1 0
vn 0.844643 -0.220841 -0.487655
vn 0.844643 -0.220841 -0.487655
vn 0.844643 -0.220841 -0.487655
vn 0 1 0
vn 0 1 0
vn 0 1 0
vn 0.842655 -0.230747 0.486507
vn 0.842655 -0.230747 0.486507
vn 0.842655 -0.230747 0.486507
vn 0 1 0
vn 0 1 0
vn 0 1 0
vn 0 -0.221573 0.975144
vn 0 -0.221573 0.975144
vn 0 -0.221573 0.975144
vn 0 1 0
vn 0 1 0
vn 0 1 0
vn -0.848117 -0.202309 0.489661
vn -0.848117 -0.202309 0.489661
vn -0.848117 -0.202309 0.489661
vn 0 1 0
vn 0 1 0
vn 0 1 0
vn -0.857531 -0.139715 -0.495096
vn -0.857531 -0.139715 -0.495096
vn -0.857531 -0.139715 -0.495096
vn 0 1 0
vn 0 1 0
vn 0 1 0
vn 0 -0.15388 -0.98809
vn 0 -0.15388 -0.98809
vn 0 -0.15388 -0.98809
vn 0 1 0
vn 0 1 0
vn 0 1 0
vn 0.852553 -0.175702 -0.492222
vn 0.852553 -0.175702 -0.492222
vn 0.852553 -0.175702 -0.492222
vn 0 1 0
vn 0 1 0
vn 0 1 0
vn 0.851333 -0.183421 0.491517
vn 0.851333 -0.183421 0.491517
vn 0.851333 -0.183421 0.491517
vn 0 1 0
vn 0 1 0
vn 0 1 0
vn 0 -0.169464 0.985536
vn 0 -0.169464 0.985536
vn 0 -0.169464 0.985536
vn 0 1 0
vn 0 1 0
vn 0 1 0
vn -0.856543 -0.147574 0.494526
vn -0.856543 -0.147574 0.494526
vn -0.856543 -0.147574 0.494526
vn 0 1 0
vn 0 1 0
vn 0 1 0
vn -0.84628 -0.212322 -0.4886
vn -0.84628 -0.212322 -0.4886
vn -0.84628 -0.212322 -0.4886
vn 0 1 0
vn 0 1 0
vn 0 1 0
vn 0 -0.188625 -0.982049
vn 0 -0.188625 -0.982049
vn 0 -0.188625 -0.982049
vn 0 1 0
vn 0 1 0
vn 0 1 0
vn 0.852789 -0.174166 -0.492358
vn 0.852789 -0.174166 -0.492358
vn 0.852789 -0.174166 -0.492358
vn 0 1 0
vn 0 1 0
vn 0 1 0
vn 0.851289 -0.183689 0.491492
vn 0.851289 -0.183689 0.491492
vn 0.851289 -0.183689 0.491492
vn 0 1 0
vn 0 1 0
vn 0 1 0
vn 0 -0.207459 0.978244
vn 0 -0.207459 0.978244
vn 0 -0.207459 0.978244
vn 0 1 0
vn 0 1 0
vn 0 1 0
vn -0.844489 -0.221624 0.487566
vn -0.844489 -0.221624 0.487566
vn -0.844489 -0.221624 0.487566
vn 0 1 0
vn 0 1 0
vn 0 1 0
vn -0.854428 -0.163107 -0.493304
vn -0.854428 -0.163107 -0.493304
vn -0.854428 -0.163107 -0.493304
vn 0 1 0
vn 0 1 0
vn 0 1 0
vn 0 -0.146161 -0.989261
vn 0 -0.146161 -0.989261
vn 0 -0.146161 -0.989261
vn 0 1 0
vn 0 1 0
vn 0 1 0
vn 0.85791 -0.136576 -0.495315
vn 0.85791 -0.136576 -0.495315
vn 0.85791 -0.136576 -0.495315
vn 0 1 0
vn 0 1 0
vn 0 1 0
vn 0.856994 -0.144042 0.494786
vn 0.856994 -0.144042 0.494786
vn 0.856994 -0.144042 0.494786
vn 0 1 0
vn 0 1 0
vn 0 1 0
vn 0 -0.161004 0.986954
vn 0 -0.161004 0.986954
vn 0 -0.161004 0.986954
vn 0 1 0
vn 0 1 0
vn 0 1 0
vn -0.853348 -0.17048 0.492681
vn -0.853348 -0.17048 0.492681
vn -0.853348 -0.17048 0.492681
vn 0 1 0
vn 0 1 0
vn 0 1 0
vn -0.854947 -0.159438 -0.493604
vn -0.854947 -0.159438 -0.493604
vn -0.854947 -0.159438 -0.493604
vn 0 1 0
vn 0 1 0
vn 0 1 0
vn 0 -0.177218 -0.984172
vn 0 -0.177218 -0.984172
vn 0 -0.177218 -0.984172
vn 0 1 0
vn 0 1 0
vn 0 1 0
vn 0.847877 -0.203648 -0.489522
vn 0.847877 -0.203648 -0.489522
vn 0.847877 -0.203648 -0.489522
vn 0 1 0
vn 0 1 0
vn 0 1 0
vn 0.846261 -0.212421 0.488589
vn 0.846261 -0.212421 0.488589
vn 0.846261 -0.212421 0.488589
vn 0 1 0
vn 0 1 0
vn 0 1 0
vn 0 -0.195001 0.980803
vn 0 -0.195001 0.980803
vn 0 -0.195001 0.980803
vn 0 1 0
vn 0 1 0
vn 0 1 0
vn -0.853652 -0.168437 0.492856
vn -0.853652 -0.168437 0.492856
vn -0.853652 -0.168437 0.492856
vn 0 1 0
vn 0 1 0
vn 0 1 0
vt 0.258 0.492
vt 0.492 0.492
vt 0.492 0.258
vt 0.258 0.492
vt 0.492 0.258
vt 0.258 0.258
vt 0.258 0.492
vt 0.492 0.492
vt 0.492 0.258
vt 0.258 0.492
vt 0.492 0.258
vt 0.258 0.258
vt 0.258 0.492
vt 0.492 0.492
vt 0.492 0.258
vt 0.258 0.492
vt 0.492 0.258
vt 0.258 0.258
vt 0.258 0.492
vt 0.492 0.492
vt 0.492 0.258
vt 0.258 0.492
vt 0.492 0.258
vt 0.258 0.258
vt 0.258 0.492
vt 0.492 0.492
vt 0.492 0.258
vt 0.258 0.492
vt 0.492 0.258
vt 0.258 0.258
vt 0.258 0.492
vt 0.492 0.492
vt 0.492 0.258
vt 0.258 0.492
vt 0.492 0.258
vt 0.258 0.258
vt 0.258 0.492
vt 0.492 0.492
vt 0.492 0.258
vt 0.258 0.492
vt 0.492 0.258
vt 0.258 0.258
vt 0.258 0.492
vt 0.492 0.492
vt 0.492 0.258
vt 0.258 0.492
vt 0.492 0.258
vt 0.258 0.258
vt 0.258 0.492
vt 0.492 0.492
vt 0.492 0.258
vt 0.258 0.492
vt 0.492 0.258
vt 0.258 0.258
vt 0.258 0.492
vt 0.492 0.492
vt 0.492 0.258
vt 0.258 0.492
vt 0.492 0.258
vt 0.258 0.258
vt 0.258 0.492
vt 0.492 0.492
vt 0.492 0.258
vt 0.258 0.492
vt 0.492 0.258
vt 0.258 0.258
vt 0.258 0.492
vt 0.492 0.492
vt 0.492 0.258
vt 0.258 0.492
vt 0.492 0.258
vt 0.258 0.258
vt 0.258 0.492
vt 0.492 0.492
vt 0.492 0.258
vt 0.258 0.492
vt 0.492 0.258
vt 0.258 0.258
vt 0.258 0.492
vt 0.492 0.492
vt 0.492 0.258
vt 0.258 0.492
vt 0.492 0.258
vt 0.258 0.258
vt 0.258 0.492
vt 0.492 0.492
vt 0.492 0.258
vt 0.258 0.492
vt 0.492 0.258
vt 0.258 0.258
vt 0.258 0.492
vt 0.492 0.492
vt 0.492 0.258
vt 0.258 0.492
vt 0.492 0.258
vt 0.258 0.258
vt 0.258 0.492
vt 0.492 0.492
vt 0.492 0.258
vt 0.258 0.492
vt 0.492 0.258
vt 0.258 0.258
vt 0.258 0.492
vt 0.492 0.492
vt 0.492 0.258
vt 0.258 0.492
vt 0.492 0.258
vt 0.258 0.258
vt 0.258 0.492
vt 0.492 0.492
vt 0.492 0.258
vt 0.258 0.492
vt 0.492 0.258
vt 0.258 0.258
vt 0.258 0.492
vt 0.492 0.492
vt 0.492 0.258
vt 0.258 0.492
vt 0.492 0.258
vt 0.258 0.258
vt 0.258 0.492
vt 0.492 0.492
vt 0.492 0.258
vt 0.258 0.492
vt 0.492 0.258
vt 0.258 0.258
vt 0.258 0.492
vt 0.492 0.492
vt 0.492 0.258
vt 0.258 0.492
vt 0.492 0.258
vt 0.258 0.258
vt 0.258 0.492
vt 0.492 0.492
vt 0.492 0.258
vt 0.258 0.492
vt 0.492 0.258
vt 0.258 0.258
vt 0.258 0.492
vt 0.492 0.492
vt 0.492 0.258
vt 0.258 0.492
vt 0.492 0.258
vt 0.258 0.258
vt 0.258 0.492
vt 0.492 0.492
vt 0.492 0.258
vt 0.258 0.492
vt 0.492 0.258
vt 0.258 0.258
vt 0.258 0.492
vt 0.492 0.492
vt 0.492 0.258
vt 0.258 0.492
vt 0.492 0.258
vt 0.258 0.258
vt 0.258 0.492
vt 0.492 0.492
vt 0.492 0.258
vt 0.258 0.492
vt 0.492 0.258
vt 0.258 0.258
vt 0.258 0.492
vt 0.492 0.492
vt 0.492 0.258
vt 0.258 0.492
vt 0.492 0.258
vt 0.258 0.258
vt 0.258 0.492
vt 0.492 0.492
vt 0.492 0.258
vt 0.258 0.492
vt 0.492 0.258
vt 0.258 0.258
vt 0.258 0.492
vt 0.492 0.492
vt 0.492 0.258
vt 0.258 0.492
vt 0.492 0.258
vt 0.258 0.258
vt 0.258 0.492
vt 0.492 0.492
vt 0.492 0.258
vt 0.258 0.492
vt 0.492 0.258
vt 0.258 0.258
vt 0.258 0.492
vt 0.492 0.492
vt 0.492 0.258
vt 0.258 0.492
vt 0.492 0.258
vt 0.258 0.258
vt 0.258 0.492
vt 0.492 0.492
vt 0.492 0.258
vt 0.258 0.492
vt 0.492 0.258
vt 0.258 0.258
vt 0.258 0.492
vt 0.492 0.492
vt 0.492 0.258
vt 0.258 0.492
vt 0.492 0.258
vt 0.258 0.258
vt 0.258 0.492
vt 0.492 0.492
vt 0.492 0.258
vt 0.258 0.492
vt 0.492 0.258
vt 0.258 0.258
vt 0.258 0.492
vt 0.492 0.492
vt 0.492 0.258
vt 0.258 0.492
vt 0.492 0.258
vt 0.258 0.258
vt 0.258 0.492
vt 0.492 0.492
vt 0.492 0.258
vt 0.258 0.492
vt 0.492 0.258
vt 0.258 0.258
f 1/1/1 2/2/2 3/3/3
f 4/4/4 5/5/5 6/6/6
f 7/7/7 8/8/8 9/9/9
f 10/10/10 11/11/11 12/12/12
f 13/13/13 14/14/14 15/15/15
f 16/16/16 17/17/17 18/18/18
f 19/19/19 20/20/20 21/21/21
f 22/22/22 23/23/23 24/24/24
f 25/25/25 26/26/26 27/27/27
f 28/28/28 29/29/29 30/30/30
f 31/31/31 32/32/32 33/33/33
f 34/34/34 35/35/35 36/36/36
f 37/37/37 38/38/38 39/39/39
f 40/40/40 41/41/41 42/42/42
f 43/43/43 44/44/44 45/45/45
f 46/46/46 47/47/47 48/48/48
f 49/49/49 50/50/50 51/51/51
f 52/52/52 53/53/53 54/54/54
f 55/55/55 56/56/56 57/57/57
f 58/58/58 59/59/59 60/60/60
f 61/61/61 62/62/62 63/63/63
f 64/64/64 65/65/65 66/66/66
f 67/67/67 68/68/68 69/69/69
f 70/70/70 71/71/71 72/72/72
f 73/73/73 74/74/74 75/75/75
f 76/76/76 77/77/77 78/78/78
f 79/79/79 80/80/80 81/81/81
f 82/82/82 83/83/83 84/84/84
f 85/85/85 86/86/86 87/87/87
f 88/88/88 89/89/89 90/90/90
f 91/91/91 92/92/92 93/93/93
f 94/94/94 95/95/95 96/96/96
f 97/97/97 98/98/98 99/99/99
f 100/100/100 101/101/101 102/102/102
f 103/103/103 104/104/104 105/105/105
f 106/106/106 107/107/107 108/108/108
f 109/109/109 110/110/110 111/111/111
f 112/112/112 113/113/113 114/114/114
f 115/115/115 116/116/116 117/117/117
f 118/118/118 119/119/119 120/120/120
f 121/121/121 122/122/122 123/123/123
f 124/124/124 125/125/125 126/126/126
f 127/127/127 128/128/128 129/129/129
f 130/130/130 131/131/131 132/132/132
f 133/133/133 134/134/134 135/135/135
f 136/136/136 137/137/137 138/138/138
f 139/139/139 140/140/140 141/141/141
f 142/142/142 143/143/143 144/144/144
f 145/145/145 146/146/146 147/147/147
f 148/148/148 149/149/149 150/150/150
f 151/151/151 152/152/152 153/153/153
f 154/154/154 155/155/155 156/156/156
f 157/157/157 158/158/158 159/159/159
f 160/160/160 161/161/161 162/162/162
f 163/163/163 164/164/164 165/165/165
f 166/166/166 167/167/167 168/168/168
f 169/169/169 170/170/170 171/171/171
f 172/172/172 173/173/173 174/174/174
f 175/175/175 176/176/176 177/177/177
f 178/178/178 179/179/179 180/180/180
f 181/181/181 182/182/182 183/183/183
f 184/184/184 185/185/185 186/186/186
f 187/187/187 188/188/188 189/189/189
f 190/190/190 191/191/191 192/192/192
f 193/193/193 194/194/194 195/195/195
f 196/196/196 197/197/197 198/198/198
f 199/199/199 200/200/200 201/201/201
f 202/202/202 203/203/203 204/204/204
f 205/205/205 206/206/206 207/207/207
f 208/208/208 209/209/209 210/210/210
f 211/211/211 212/212/212 213/213/213
f 214/214/214 215/215/215 216/216/216
f 217/217/217 218/218/218 219/219/219
f 220/220/220 221/221/221 222/222/222
