# Ruinas do Veu Azul - PS2 procedural export
mtllib frost_atlas.mtl
usemtl frost_atlas
o player
s off
v -0.675 2.25 -0.675 0.2714 0.5546 0.7198
v -0.675 2.25 0.675 0.2714 0.5546 0.7198
v 0.675 2.25 0.675 0.2714 0.5546 0.7198
v -0.675 2.25 -0.675 0.2714 0.5546 0.7198
v 0.675 2.25 0.675 0.2714 0.5546 0.7198
v 0.675 2.25 -0.675 0.2714 0.5546 0.7198
v -0.675 0 0.675 0.1104 0.2256 0.2928
v -0.675 0 -0.675 0.1104 0.2256 0.2928
v 0.675 0 -0.675 0.1104 0.2256 0.2928
v -0.675 0 0.675 0.1104 0.2256 0.2928
v 0.675 0 -0.675 0.1104 0.2256 0.2928
v 0.675 0 0.675 0.1104 0.2256 0.2928
v -0.675 0 -0.675 0.1679 0.3431 0.4453
v -0.675 2.25 -0.675 0.1679 0.3431 0.4453
v 0.675 2.25 -0.675 0.1679 0.3431 0.4453
v -0.675 0 -0.675 0.1679 0.3431 0.4453
v 0.675 2.25 -0.675 0.1679 0.3431 0.4453
v 0.675 0 -0.675 0.1679 0.3431 0.4453
v 0.675 0 0.675 0.2093 0.4277 0.5551
v 0.675 0 -0.675 0.2093 0.4277 0.5551
v 0.675 2.25 -0.675 0.2093 0.4277 0.5551
v 0.675 0 0.675 0.2093 0.4277 0.5551
v 0.675 2.25 -0.675 0.2093 0.4277 0.5551
v 0.675 2.25 0.675 0.2093 0.4277 0.5551
v -0.675 0 0.675 0.2346 0.4794 0.6222
v 0.675 0 0.675 0.2346 0.4794 0.6222
v 0.675 2.25 0.675 0.2346 0.4794 0.6222
v -0.675 0 0.675 0.2346 0.4794 0.6222
v 0.675 2.25 0.675 0.2346 0.4794 0.6222
v -0.675 2.25 0.675 0.2346 0.4794 0.6222
v -0.675 0 -0.675 0.1426 0.2914 0.3782
v -0.675 0 0.675 0.1426 0.2914 0.3782
v -0.675 2.25 0.675 0.1426 0.2914 0.3782
v -0.675 0 -0.675 0.1426 0.2914 0.3782
v -0.675 2.25 0.675 0.1426 0.2914 0.3782
v -0.675 2.25 -0.675 0.1426 0.2914 0.3782
v -0.39 2.12 -0.73 0.7316 0.9912 1
v -0.39 2.12 -0.65 0.7316 0.9912 1
v 0.39 2.12 -0.65 0.7316 0.9912 1
v -0.39 2.12 -0.73 0.7316 0.9912 1
v 0.39 2.12 -0.65 0.7316 0.9912 1
v 0.39 2.12 -0.73 0.7316 0.9912 1
v -0.39 1.78 -0.65 0.2976 0.4032 0.4512
v -0.39 1.78 -0.73 0.2976 0.4032 0.4512
v 0.39 1.78 -0.73 0.2976 0.4032 0.4512
v -0.39 1.78 -0.65 0.2976 0.4032 0.4512
v 0.39 1.78 -0.73 0.2976 0.4032 0.4512
v 0.39 1.78 -0.65 0.2976 0.4032 0.4512
v -0.39 1.78 -0.73 0.4526 0.6132 0.6862
v -0.39 2.12 -0.73 0.4526 0.6132 0.6862
v 0.39 2.12 -0.73 0.4526 0.6132 0.6862
v -0.39 1.78 -0.73 0.4526 0.6132 0.6862
v 0.39 2.12 -0.73 0.4526 0.6132 0.6862
v 0.39 1.78 -0.73 0.4526 0.6132 0.6862
v 0.39 1.78 -0.65 0.5642 0.7644 0.8554
v 0.39 1.78 -0.73 0.5642 0.7644 0.8554
v 0.39 2.12 -0.73 0.5642 0.7644 0.8554
v 0.39 1.78 -0.65 0.5642 0.7644 0.8554
v 0.39 2.12 -0.73 0.5642 0.7644 0.8554
v 0.39 2.12 -0.65 0.5642 0.7644 0.8554
v -0.39 1.78 -0.65 0.6324 0.8568 0.9588
v 0.39 1.78 -0.65 0.6324 0.8568 0.9588
v 0.39 2.12 -0.65 0.6324 0.8568 0.9588
v -0.39 1.78 -0.65 0.6324 0.8568 0.9588
v 0.39 2.12 -0.65 0.6324 0.8568 0.9588
v -0.39 2.12 -0.65 0.6324 0.8568 0.9588
v -0.39 1.78 -0.73 0.3844 0.5208 0.5828
v -0.39 1.78 -0.65 0.3844 0.5208 0.5828
v -0.39 2.12 -0.65 0.3844 0.5208 0.5828
v -0.39 1.78 -0.73 0.3844 0.5208 0.5828
v -0.39 2.12 -0.65 0.3844 0.5208 0.5828
v -0.39 2.12 -0.73 0.3844 0.5208 0.5828
vn 0 1 0
vn 0 1 0
vn 0 1 0
vn 0 1 0
vn 0 1 0
vn 0 1 0
vn 0 -1 0
vn 0 -1 0
vn 0 -1 0
vn 0 -1 0
vn 0 -1 0
vn 0 -1 0
vn 0 0 -1
vn 0 0 -1
vn 0 0 -1
vn 0 0 -1
vn 0 0 -1
vn 0 0 -1
vn 1 0 0
vn 1 0 0
vn 1 0 0
vn 1 0 0
vn 1 0 0
vn 1 0 0
vn 0 0 1
vn 0 0 1
vn 0 0 1
vn 0 0 1
vn 0 0 1
vn 0 0 1
vn -1 0 0
vn -1 0 0
vn -1 0 0
vn -1 0 0
vn -1 0 0
vn -1 0 0
vn 0 1 0
vn 0 1 0
vn 0 1 0
vn 0 1 0
vn 0 1 0
vn 0 1 0
vn 0 -1 0
vn 0 -1 0
vn 0 -1 0
vn 0 -1 0
vn 0 -1 0
vn 0 -1 0
vn 0 0 -1
vn 0 0 -1
vn 0 0 -1
vn 0 0 -1
vn 0 0 -1
vn 0 0 -1
vn 1 0 0
vn 1 0 0
vn 1 0 0
vn 1 0 0
vn 1 0 0
vn 1 0 0
vn 0 0 1
vn 0 0 1
vn 0 0 1
vn 0 0 1
vn 0 0 1
vn 0 0 1
vn -1 0 0
vn -1 0 0
vn -1 0 0
vn -1 0 0
vn -1 0 0
vn -1 0 0
vt 0.507813 0.492188
vt 0.742188 0.492188
vt 0.742188 0.257813
vt 0.507813 0.742188
vt 0.742188 0.507813
vt 0.507813 0.507813
vt 0.257813 0.492188
vt 0.492188 0.492188
vt 0.492188 0.257813
vt 0.757813 0.492188
vt 0.992188 0.257813
vt 0.757813 0.257813
vt 0.007813 0.992188
vt 0.242188 0.992188
vt 0.242188 0.757813
vt 0.257813 0.992188
vt 0.492188 0.757813
vt 0.257813 0.757813
vt 0.257813 0.492188
vt 0.492188 0.492188
vt 0.492188 0.257813
vt 0.757813 0.492188
vt 0.992188 0.257813
vt 0.757813 0.257813
vt 0.007813 0.992188
vt 0.242188 0.992188
vt 0.242188 0.757813
vt 0.257813 0.992188
vt 0.492188 0.757813
vt 0.257813 0.757813
vt 0.257813 0.492188
vt 0.492188 0.492188
vt 0.492188 0.257813
vt 0.757813 0.492188
vt 0.992188 0.257813
vt 0.757813 0.257813
vt 0.507813 0.492188
vt 0.742188 0.492188
vt 0.742188 0.257813
vt 0.507813 0.742188
vt 0.742188 0.507813
vt 0.507813 0.507813
vt 0.507813 0.992188
vt 0.742188 0.992188
vt 0.742188 0.757813
vt 0.007813 0.742188
vt 0.242188 0.507813
vt 0.007813 0.507813
vt 0.507813 0.742188
vt 0.742188 0.742188
vt 0.742188 0.507813
vt 0.757813 0.992188
vt 0.992188 0.757813
vt 0.757813 0.757813
vt 0.507813 0.492188
vt 0.742188 0.492188
vt 0.742188 0.257813
vt 0.507813 0.742188
vt 0.742188 0.507813
vt 0.507813 0.507813
vt 0.757813 0.992188
vt 0.992188 0.992188
vt 0.992188 0.757813
vt 0.507813 0.492188
vt 0.742188 0.257813
vt 0.507813 0.257813
vt 0.757813 0.742188
vt 0.992188 0.742188
vt 0.992188 0.507813
vt 0.507813 0.492188
vt 0.742188 0.257813
vt 0.507813 0.257813
f 1/1/1 2/2/2 3/3/3
f 4/4/4 5/5/5 6/6/6
f 7/7/7 8/8/8 9/9/9
f 10/10/10 11/11/11 12/12/12
f 13/13/13 14/14/14 15/15/15
f 16/16/16 17/17/17 18/18/18
f 19/19/19 20/20/20 21/21/21
f 22/22/22 23/23/23 24/24/24
f 25/25/25 26/26/26 27/27/27
f 28/28/28 29/29/29 30/30/30
f 31/31/31 32/32/32 33/33/33
f 34/34/34 35/35/35 36/36/36
f 37/37/37 38/38/38 39/39/39
f 40/40/40 41/41/41 42/42/42
f 43/43/43 44/44/44 45/45/45
f 46/46/46 47/47/47 48/48/48
f 49/49/49 50/50/50 51/51/51
f 52/52/52 53/53/53 54/54/54
f 55/55/55 56/56/56 57/57/57
f 58/58/58 59/59/59 60/60/60
f 61/61/61 62/62/62 63/63/63
f 64/64/64 65/65/65 66/66/66
f 67/67/67 68/68/68 69/69/69
f 70/70/70 71/71/71 72/72/72
